M48
; DRILL file {KiCad (5.1.7)-1} date 11/02/20 15:49:16
; FORMAT={-:-/ absolute / metric / decimal}
; #@! TF.CreationDate,2020-11-02T15:49:16+01:00
; #@! TF.GenerationSoftware,Kicad,Pcbnew,(5.1.7)-1
; #@! TF.FileFunction,Plated,1,2,PTH
FMAT,2
METRIC
T1C0.800
T2C0.900
T3C1.000
T4C1.320
%
G90
G05
T1
X242.164Y-123.584
X242.164Y-133.744
X233.528Y-101.232
X247.752Y-123.584
X247.752Y-133.744
X222.225Y-111.265
X222.225Y-121.425
X237.592Y-101.232
X237.592Y-111.392
X228.575Y-123.457
X228.575Y-133.617
X233.528Y-111.392
X228.956Y-101.232
X228.956Y-111.392
T2
X222.352Y-129.68
X224.892Y-129.68
X246.736Y-110.122
X246.736Y-112.662
X234.036Y-128.918
X236.576Y-128.918
X259.944Y-139.967
X262.484Y-139.967
X246.736Y-103.264
X246.736Y-105.804
X246.736Y-117.234
X246.736Y-119.774
T3
X208.636Y-96.152
X208.636Y-98.692
X211.176Y-96.152
X211.176Y-98.692
X213.716Y-96.152
X213.716Y-98.692
X216.256Y-96.152
X216.256Y-98.692
X218.796Y-96.152
X218.796Y-98.692
X221.336Y-96.152
X221.336Y-98.692
X223.876Y-96.152
X223.876Y-98.692
X226.416Y-96.152
X226.416Y-98.692
X228.956Y-96.152
X228.956Y-98.692
X231.496Y-96.152
X231.496Y-98.692
X234.036Y-96.152
X234.036Y-98.692
X236.576Y-96.152
X236.576Y-98.692
X239.116Y-96.152
X239.116Y-98.692
X241.656Y-96.152
X241.656Y-98.692
X244.196Y-96.152
X244.196Y-98.692
X246.736Y-96.152
X246.736Y-98.692
X249.276Y-96.152
X249.276Y-98.692
X251.816Y-96.152
X251.816Y-98.692
X254.356Y-96.152
X254.356Y-98.692
X256.896Y-96.152
X256.896Y-98.692
X231.75Y-118.885
X239.35Y-118.885
T4
X235.56Y-141.364
X240.56Y-141.364
X256.769Y-115.282
X256.769Y-120.282
X256.769Y-103.725
X256.769Y-108.725
X223.368Y-141.364
X228.368Y-141.364
X213.589Y-103.264
X213.589Y-108.264
X213.589Y-113.264
X256.642Y-126.966
X256.642Y-131.966
X213.589Y-135.776
X213.589Y-140.776
X213.589Y-145.776
X213.589Y-119.52
X213.589Y-124.52
X213.589Y-129.52
X249.149Y-141.491
X254.149Y-141.491
T0
M30
