G04 #@! TF.GenerationSoftware,KiCad,Pcbnew,(5.1.7)-1*
G04 #@! TF.CreationDate,2020-11-02T15:49:25+01:00*
G04 #@! TF.ProjectId,raspberrypi-gpio-40pin,72617370-6265-4727-9279-70692d677069,rev?*
G04 #@! TF.SameCoordinates,Original*
G04 #@! TF.FileFunction,Copper,L1,Top*
G04 #@! TF.FilePolarity,Positive*
%FSLAX46Y46*%
G04 Gerber Fmt 4.6, Leading zero omitted, Abs format (unit mm)*
G04 Created by KiCad (PCBNEW (5.1.7)-1) date 2020-11-02 15:49:25*
%MOMM*%
%LPD*%
G01*
G04 APERTURE LIST*
G04 #@! TA.AperFunction,ComponentPad*
%ADD10O,1.600000X1.600000*%
G04 #@! TD*
G04 #@! TA.AperFunction,ComponentPad*
%ADD11C,1.600000*%
G04 #@! TD*
G04 #@! TA.AperFunction,ComponentPad*
%ADD12R,1.980000X3.960000*%
G04 #@! TD*
G04 #@! TA.AperFunction,ComponentPad*
%ADD13O,1.980000X3.960000*%
G04 #@! TD*
G04 #@! TA.AperFunction,ComponentPad*
%ADD14R,2.000000X2.000000*%
G04 #@! TD*
G04 #@! TA.AperFunction,ComponentPad*
%ADD15C,2.000000*%
G04 #@! TD*
G04 #@! TA.AperFunction,ComponentPad*
%ADD16O,3.960000X1.980000*%
G04 #@! TD*
G04 #@! TA.AperFunction,ComponentPad*
%ADD17R,3.960000X1.980000*%
G04 #@! TD*
G04 #@! TA.AperFunction,ComponentPad*
%ADD18R,1.800000X1.800000*%
G04 #@! TD*
G04 #@! TA.AperFunction,ComponentPad*
%ADD19C,1.800000*%
G04 #@! TD*
G04 #@! TA.AperFunction,ComponentPad*
%ADD20R,1.700000X1.700000*%
G04 #@! TD*
G04 #@! TA.AperFunction,ComponentPad*
%ADD21O,1.700000X1.700000*%
G04 #@! TD*
G04 #@! TA.AperFunction,Conductor*
%ADD22C,0.200000*%
G04 #@! TD*
G04 APERTURE END LIST*
D10*
X228575000Y-123457000D03*
D11*
X228575000Y-133617000D03*
D12*
X223368000Y-141364000D03*
D13*
X228368000Y-141364000D03*
D14*
X231750000Y-118885000D03*
D15*
X239350000Y-118885000D03*
D16*
X213589000Y-145776000D03*
X213589000Y-140776000D03*
D17*
X213589000Y-135776000D03*
D18*
X246736000Y-112662000D03*
D19*
X246736000Y-110122000D03*
X222352000Y-129680000D03*
D18*
X224892000Y-129680000D03*
X236576000Y-128918000D03*
D19*
X234036000Y-128918000D03*
X246736000Y-117234000D03*
D18*
X246736000Y-119774000D03*
D19*
X246736000Y-103264000D03*
D18*
X246736000Y-105804000D03*
X259944000Y-139967000D03*
D19*
X262484000Y-139967000D03*
D16*
X256769000Y-115282000D03*
D17*
X256769000Y-120282000D03*
D20*
X208636000Y-98692000D03*
D21*
X208636000Y-96152000D03*
X211176000Y-98692000D03*
X211176000Y-96152000D03*
X213716000Y-98692000D03*
X213716000Y-96152000D03*
X216256000Y-98692000D03*
X216256000Y-96152000D03*
X218796000Y-98692000D03*
X218796000Y-96152000D03*
X221336000Y-98692000D03*
X221336000Y-96152000D03*
X223876000Y-98692000D03*
X223876000Y-96152000D03*
X226416000Y-98692000D03*
X226416000Y-96152000D03*
X228956000Y-98692000D03*
X228956000Y-96152000D03*
X231496000Y-98692000D03*
X231496000Y-96152000D03*
X234036000Y-98692000D03*
X234036000Y-96152000D03*
X236576000Y-98692000D03*
X236576000Y-96152000D03*
X239116000Y-98692000D03*
X239116000Y-96152000D03*
X241656000Y-98692000D03*
X241656000Y-96152000D03*
X244196000Y-98692000D03*
X244196000Y-96152000D03*
X246736000Y-98692000D03*
X246736000Y-96152000D03*
X249276000Y-98692000D03*
X249276000Y-96152000D03*
X251816000Y-98692000D03*
X251816000Y-96152000D03*
X254356000Y-98692000D03*
X254356000Y-96152000D03*
X256896000Y-98692000D03*
X256896000Y-96152000D03*
D17*
X213589000Y-119520000D03*
D16*
X213589000Y-124520000D03*
X213589000Y-129520000D03*
D12*
X235560000Y-141364000D03*
D13*
X240560000Y-141364000D03*
D16*
X256642000Y-126966000D03*
D17*
X256642000Y-131966000D03*
X256769000Y-108725000D03*
D16*
X256769000Y-103725000D03*
D13*
X254149000Y-141491000D03*
D12*
X249149000Y-141491000D03*
D17*
X213589000Y-103264000D03*
D16*
X213589000Y-108264000D03*
X213589000Y-113264000D03*
D11*
X222225000Y-111265000D03*
D10*
X222225000Y-121425000D03*
D11*
X233528000Y-101232000D03*
D10*
X233528000Y-111392000D03*
D11*
X242164000Y-133744000D03*
D10*
X242164000Y-123584000D03*
X228956000Y-111392000D03*
D11*
X228956000Y-101232000D03*
D10*
X237592000Y-111392000D03*
D11*
X237592000Y-101232000D03*
X247752000Y-123584000D03*
D10*
X247752000Y-133744000D03*
D22*
X217406001Y-97302001D02*
X218796000Y-98692000D01*
X214866001Y-97302001D02*
X217406001Y-97302001D01*
X213716000Y-96152000D02*
X214866001Y-97302001D01*
X220185999Y-97302001D02*
X218796000Y-98692000D01*
X222725999Y-97302001D02*
X220185999Y-97302001D01*
X223876000Y-96152000D02*
X222725999Y-97302001D01*
X232646001Y-100350001D02*
X233528000Y-101232000D01*
X232646001Y-97302001D02*
X232646001Y-100350001D01*
X231496000Y-96152000D02*
X232646001Y-97302001D01*
X243045999Y-97302001D02*
X244196000Y-96152000D01*
X240505999Y-97302001D02*
X243045999Y-97302001D01*
X239116000Y-98692000D02*
X240505999Y-97302001D01*
X255506001Y-97302001D02*
X256896000Y-98692000D01*
X250426001Y-97302001D02*
X255506001Y-97302001D01*
X249276000Y-96152000D02*
X250426001Y-97302001D01*
X226416000Y-114186000D02*
X231750000Y-119520000D01*
X226416000Y-98692000D02*
X226416000Y-114186000D01*
X246397999Y-113000001D02*
X246736000Y-112662000D01*
X235028011Y-113400011D02*
X245997989Y-113400011D01*
X245997989Y-113400011D02*
X246736000Y-112662000D01*
X233528000Y-111900000D02*
X235028011Y-113400011D01*
X256642000Y-120028000D02*
X246736000Y-110122000D01*
X257912000Y-120028000D02*
X256642000Y-120028000D01*
X234036000Y-96152000D02*
X235433000Y-94755000D01*
X258400990Y-102038490D02*
X260325000Y-103962500D01*
X258400990Y-95954988D02*
X258400990Y-102038490D01*
X257201002Y-94755000D02*
X258400990Y-95954988D01*
X235433000Y-94755000D02*
X257201002Y-94755000D01*
X260325000Y-103962500D02*
X260325000Y-110122000D01*
X260325000Y-110122000D02*
X259626500Y-110820500D01*
X259626500Y-110820500D02*
X250990500Y-110820500D01*
X250292000Y-110122000D02*
X246736000Y-110122000D01*
X250990500Y-110820500D02*
X250292000Y-110122000D01*
X225654000Y-103010000D02*
X221336000Y-98692000D01*
X225654000Y-126378000D02*
X222352000Y-129680000D01*
X225654000Y-103010000D02*
X225654000Y-126378000D01*
X222352000Y-129680000D02*
X222352000Y-136538000D01*
X223368000Y-137554000D02*
X223368000Y-141364000D01*
X222352000Y-136538000D02*
X223368000Y-137554000D01*
X224892000Y-129680000D02*
X224892000Y-128283000D01*
X224892000Y-128283000D02*
X226670000Y-126505000D01*
X226670000Y-125362000D02*
X228575000Y-123457000D01*
X226670000Y-126505000D02*
X226670000Y-125362000D01*
X236576000Y-128918000D02*
X237719000Y-128918000D01*
X237719000Y-128918000D02*
X239370000Y-127267000D01*
X239370000Y-126378000D02*
X242164000Y-123584000D01*
X239370000Y-127267000D02*
X239370000Y-126378000D01*
X227178000Y-113932000D02*
X228956000Y-115710000D01*
X227178000Y-102756000D02*
X227178000Y-113932000D01*
X227686000Y-102248000D02*
X227178000Y-102756000D01*
X227686000Y-97422000D02*
X227686000Y-102248000D01*
X226416000Y-96152000D02*
X227686000Y-97422000D01*
X235560000Y-141364000D02*
X235560000Y-137427000D01*
X234036000Y-135903000D02*
X234036000Y-128918000D01*
X235560000Y-137427000D02*
X234036000Y-135903000D01*
X228956000Y-115710000D02*
X232512000Y-115710000D01*
X234036000Y-117234000D02*
X234036000Y-128918000D01*
X232512000Y-115710000D02*
X234036000Y-117234000D01*
X257912000Y-131204000D02*
X255880000Y-131204000D01*
X255880000Y-131204000D02*
X252578000Y-127902000D01*
X252578000Y-127902000D02*
X252578000Y-119012000D01*
X250800000Y-117234000D02*
X246736000Y-117234000D01*
X252578000Y-119012000D02*
X250800000Y-117234000D01*
X225026001Y-95839997D02*
X225863999Y-95001999D01*
X225026001Y-97541999D02*
X225026001Y-95839997D01*
X223876000Y-98692000D02*
X225026001Y-97541999D01*
X230345999Y-101986999D02*
X231369000Y-103010000D01*
X231369000Y-103010000D02*
X231369000Y-110861002D01*
X243795990Y-114293990D02*
X243815000Y-114313000D01*
X234801988Y-114293990D02*
X243795990Y-114293990D01*
X231369000Y-110861002D02*
X234801988Y-114293990D01*
X243815000Y-114313000D02*
X246736000Y-117234000D01*
X228643997Y-97541999D02*
X229508001Y-97541999D01*
X230345999Y-98379997D02*
X230345999Y-101986999D01*
X229508001Y-97541999D02*
X230345999Y-98379997D01*
X227805999Y-96704001D02*
X228643997Y-97541999D01*
X227805999Y-95839997D02*
X227805999Y-96704001D01*
X226968001Y-95001999D02*
X227805999Y-95839997D01*
X225863999Y-95001999D02*
X226968001Y-95001999D01*
X228956000Y-111900000D02*
X228956000Y-113678000D01*
X228956000Y-113678000D02*
X229972000Y-114694000D01*
X241656000Y-114694000D02*
X246736000Y-119774000D01*
X229972000Y-114694000D02*
X241656000Y-114694000D01*
X246736000Y-103264000D02*
X246482000Y-103264000D01*
X249276000Y-101232000D02*
X256769000Y-108725000D01*
X230106001Y-95001999D02*
X232885999Y-95001999D01*
X228956000Y-96152000D02*
X230106001Y-95001999D01*
X233483999Y-97302001D02*
X237838999Y-97302001D01*
X232885999Y-96704001D02*
X233483999Y-97302001D01*
X232885999Y-95001999D02*
X232885999Y-96704001D01*
X239953998Y-101232000D02*
X246736000Y-101232000D01*
X237838999Y-99117001D02*
X239953998Y-101232000D01*
X237838999Y-97302001D02*
X237838999Y-99117001D01*
X246736000Y-103264000D02*
X246736000Y-101232000D01*
X246736000Y-101232000D02*
X249276000Y-101232000D01*
X241148000Y-111392000D02*
X246736000Y-105804000D01*
X241148000Y-111392000D02*
X237592000Y-111392000D01*
X247752000Y-133744000D02*
X252832000Y-138824000D01*
X258801000Y-138824000D02*
X259944000Y-139967000D01*
X252832000Y-138824000D02*
X258801000Y-138824000D01*
X221336000Y-96152000D02*
X221336000Y-95390000D01*
X249149000Y-141491000D02*
X249149000Y-142634000D01*
X249149000Y-142634000D02*
X252070000Y-145555000D01*
X256896000Y-145555000D02*
X262484000Y-139967000D01*
X252070000Y-145555000D02*
X256896000Y-145555000D01*
X262865000Y-139586000D02*
X262484000Y-139967000D01*
X262865000Y-135395000D02*
X262865000Y-139586000D01*
X261341000Y-133871000D02*
X262865000Y-135395000D01*
X261341000Y-101295500D02*
X261341000Y-133871000D01*
X258801000Y-94350010D02*
X258801000Y-98755500D01*
X223137990Y-94350010D02*
X258801000Y-94350010D01*
X258801000Y-98755500D02*
X261341000Y-101295500D01*
X221336000Y-96152000D02*
X223137990Y-94350010D01*
X216256000Y-98692000D02*
X224638000Y-107074000D01*
X214614001Y-122605999D02*
X212700000Y-124520000D01*
X218325999Y-113889999D02*
X212700000Y-108264000D01*
X218325999Y-122605999D02*
X218325999Y-113889999D01*
X218325999Y-122605999D02*
X214614001Y-122605999D01*
X218325999Y-135150001D02*
X212700000Y-140776000D01*
X218325999Y-122605999D02*
X218325999Y-135150001D01*
X224638000Y-119012000D02*
X222225000Y-121425000D01*
X224638000Y-107074000D02*
X224638000Y-119012000D01*
X221044001Y-122605999D02*
X222225000Y-121425000D01*
X218325999Y-122605999D02*
X221044001Y-122605999D01*
X208636000Y-98692000D02*
X208636000Y-99200000D01*
X210287000Y-100851000D02*
X209779000Y-100851000D01*
X208636000Y-99200000D02*
X210287000Y-100851000D01*
X210287000Y-100851000D02*
X212700000Y-103264000D01*
X209779000Y-132855000D02*
X212700000Y-135776000D01*
X215875000Y-100851000D02*
X210287000Y-100851000D01*
X221336000Y-106312000D02*
X215875000Y-100851000D01*
X211557000Y-119520000D02*
X209779000Y-117742000D01*
X212700000Y-119520000D02*
X211557000Y-119520000D01*
X209779000Y-117742000D02*
X209779000Y-132855000D01*
X209779000Y-100851000D02*
X209779000Y-117742000D01*
X221336000Y-110376000D02*
X222225000Y-111265000D01*
X221336000Y-106312000D02*
X221336000Y-110376000D01*
X228956000Y-98692000D02*
X229210000Y-98692000D01*
M02*
