G04 #@! TF.GenerationSoftware,KiCad,Pcbnew,(5.1.7)-1*
G04 #@! TF.CreationDate,2020-11-02T15:49:25+01:00*
G04 #@! TF.ProjectId,raspberrypi-gpio-40pin,72617370-6265-4727-9279-70692d677069,rev?*
G04 #@! TF.SameCoordinates,Original*
G04 #@! TF.FileFunction,Legend,Top*
G04 #@! TF.FilePolarity,Positive*
%FSLAX46Y46*%
G04 Gerber Fmt 4.6, Leading zero omitted, Abs format (unit mm)*
G04 Created by KiCad (PCBNEW (5.1.7)-1) date 2020-11-02 15:49:25*
%MOMM*%
%LPD*%
G01*
G04 APERTURE LIST*
%ADD10C,0.190500*%
%ADD11C,0.250000*%
%ADD12C,0.120000*%
%ADD13C,0.150000*%
G04 APERTURE END LIST*
D10*
X264062428Y-110230857D02*
X264062428Y-109650285D01*
X264352714Y-109940571D02*
X263772142Y-109940571D01*
X263953571Y-107872285D02*
X263989857Y-107763428D01*
X264026142Y-107727142D01*
X264098714Y-107690857D01*
X264207571Y-107690857D01*
X264280142Y-107727142D01*
X264316428Y-107763428D01*
X264352714Y-107836000D01*
X264352714Y-108126285D01*
X263590714Y-108126285D01*
X263590714Y-107872285D01*
X263627000Y-107799714D01*
X263663285Y-107763428D01*
X263735857Y-107727142D01*
X263808428Y-107727142D01*
X263881000Y-107763428D01*
X263917285Y-107799714D01*
X263953571Y-107872285D01*
X263953571Y-108126285D01*
X263590714Y-107219142D02*
X263590714Y-107074000D01*
X263627000Y-107001428D01*
X263699571Y-106928857D01*
X263844714Y-106892571D01*
X264098714Y-106892571D01*
X264243857Y-106928857D01*
X264316428Y-107001428D01*
X264352714Y-107074000D01*
X264352714Y-107219142D01*
X264316428Y-107291714D01*
X264243857Y-107364285D01*
X264098714Y-107400571D01*
X263844714Y-107400571D01*
X263699571Y-107364285D01*
X263627000Y-107291714D01*
X263590714Y-107219142D01*
X264352714Y-106566000D02*
X263590714Y-106566000D01*
X264352714Y-105840285D02*
X264352714Y-106203142D01*
X263590714Y-106203142D01*
X264352714Y-105005714D02*
X263590714Y-105005714D01*
X264352714Y-104570285D02*
X263917285Y-104896857D01*
X263590714Y-104570285D02*
X264026142Y-105005714D01*
X264280142Y-104243714D02*
X264316428Y-104207428D01*
X264352714Y-104243714D01*
X264316428Y-104280000D01*
X264280142Y-104243714D01*
X264352714Y-104243714D01*
X264062428Y-102719714D02*
X264062428Y-102139142D01*
D11*
X203087619Y-139078190D02*
X202087619Y-139411523D01*
X203087619Y-139744857D01*
X202087619Y-140602000D02*
X202087619Y-140030571D01*
X202087619Y-140316285D02*
X203087619Y-140316285D01*
X202944761Y-140221047D01*
X202849523Y-140125809D01*
X202801904Y-140030571D01*
X202182857Y-141030571D02*
X202135238Y-141078190D01*
X202087619Y-141030571D01*
X202135238Y-140982952D01*
X202182857Y-141030571D01*
X202087619Y-141030571D01*
X203087619Y-141697238D02*
X203087619Y-141792476D01*
X203040000Y-141887714D01*
X202992380Y-141935333D01*
X202897142Y-141982952D01*
X202706666Y-142030571D01*
X202468571Y-142030571D01*
X202278095Y-141982952D01*
X202182857Y-141935333D01*
X202135238Y-141887714D01*
X202087619Y-141792476D01*
X202087619Y-141697238D01*
X202135238Y-141602000D01*
X202182857Y-141554380D01*
X202278095Y-141506761D01*
X202468571Y-141459142D01*
X202706666Y-141459142D01*
X202897142Y-141506761D01*
X202992380Y-141554380D01*
X203040000Y-141602000D01*
X203087619Y-141697238D01*
X203486428Y-132249080D02*
X203486428Y-131915747D01*
X202962619Y-131850270D02*
X203962619Y-131975270D01*
X203962619Y-132451461D01*
X203486428Y-132772889D02*
X203486428Y-133106223D01*
X202962619Y-133183604D02*
X202962619Y-132707413D01*
X203962619Y-132832413D01*
X203962619Y-133308604D01*
X202962619Y-134088366D02*
X202962619Y-133612175D01*
X203962619Y-133737175D01*
X202962619Y-134897889D02*
X202962619Y-134421699D01*
X203962619Y-134546699D01*
X203962619Y-135546699D02*
X203962619Y-135737175D01*
X203915000Y-135826461D01*
X203819761Y-135909794D01*
X203629285Y-135933604D01*
X203295952Y-135891937D01*
X203105476Y-135820508D01*
X203010238Y-135713366D01*
X202962619Y-135612175D01*
X202962619Y-135421699D01*
X203010238Y-135332413D01*
X203105476Y-135249080D01*
X203295952Y-135225270D01*
X203629285Y-135266937D01*
X203819761Y-135338366D01*
X203915000Y-135445508D01*
X203962619Y-135546699D01*
X203962619Y-136308604D02*
X202962619Y-136421699D01*
X203676904Y-136701461D01*
X202962619Y-136802651D01*
X203962619Y-137165747D01*
X201736428Y-132058604D02*
X201688809Y-132195508D01*
X201641190Y-132237175D01*
X201545952Y-132272889D01*
X201403095Y-132255032D01*
X201307857Y-132195508D01*
X201260238Y-132141937D01*
X201212619Y-132040747D01*
X201212619Y-131659794D01*
X202212619Y-131784794D01*
X202212619Y-132118127D01*
X202165000Y-132207413D01*
X202117380Y-132249080D01*
X202022142Y-132284794D01*
X201926904Y-132272889D01*
X201831666Y-132213366D01*
X201784047Y-132159794D01*
X201736428Y-132058604D01*
X201736428Y-131725270D01*
X201212619Y-133231223D02*
X201688809Y-132957413D01*
X201212619Y-132659794D02*
X202212619Y-132784794D01*
X202212619Y-133165747D01*
X202165000Y-133255032D01*
X202117380Y-133296699D01*
X202022142Y-133332413D01*
X201879285Y-133314556D01*
X201784047Y-133255032D01*
X201736428Y-133201461D01*
X201688809Y-133100270D01*
X201688809Y-132719318D01*
X201736428Y-133725270D02*
X201736428Y-134058604D01*
X201212619Y-134135985D02*
X201212619Y-133659794D01*
X202212619Y-133784794D01*
X202212619Y-134260985D01*
X202212619Y-134594318D02*
X201212619Y-134707413D01*
X201926904Y-134987175D01*
X201212619Y-135088366D01*
X202212619Y-135451461D01*
X201736428Y-135772889D02*
X201736428Y-136106223D01*
X201212619Y-136183604D02*
X201212619Y-135707413D01*
X202212619Y-135832413D01*
X202212619Y-136308604D01*
X201212619Y-137183604D02*
X201688809Y-136909794D01*
X201212619Y-136612175D02*
X202212619Y-136737175D01*
X202212619Y-137118127D01*
X202165000Y-137207413D01*
X202117380Y-137249080D01*
X202022142Y-137284794D01*
X201879285Y-137266937D01*
X201784047Y-137207413D01*
X201736428Y-137153842D01*
X201688809Y-137052651D01*
X201688809Y-136671699D01*
X202930857Y-103080889D02*
X202883238Y-103027318D01*
X202835619Y-102878508D01*
X202835619Y-102783270D01*
X202883238Y-102646366D01*
X202978476Y-102563032D01*
X203073714Y-102527318D01*
X203264190Y-102503508D01*
X203407047Y-102521366D01*
X203597523Y-102592794D01*
X203692761Y-102652318D01*
X203788000Y-102759461D01*
X203835619Y-102908270D01*
X203835619Y-103003508D01*
X203788000Y-103140413D01*
X203740380Y-103182080D01*
X202835619Y-103497556D02*
X203502285Y-103580889D01*
X203311809Y-103557080D02*
X203407047Y-103616604D01*
X203454666Y-103670175D01*
X203502285Y-103771366D01*
X203502285Y-103866604D01*
X202883238Y-104503508D02*
X202835619Y-104402318D01*
X202835619Y-104211842D01*
X202883238Y-104122556D01*
X202978476Y-104086842D01*
X203359428Y-104134461D01*
X203454666Y-104193985D01*
X203502285Y-104295175D01*
X203502285Y-104485651D01*
X203454666Y-104574937D01*
X203359428Y-104610651D01*
X203264190Y-104598747D01*
X203168952Y-104110651D01*
X202835619Y-105402318D02*
X203359428Y-105467794D01*
X203454666Y-105432080D01*
X203502285Y-105342794D01*
X203502285Y-105152318D01*
X203454666Y-105051127D01*
X202883238Y-105408270D02*
X202835619Y-105307080D01*
X202835619Y-105068985D01*
X202883238Y-104979699D01*
X202978476Y-104943985D01*
X203073714Y-104955889D01*
X203168952Y-105015413D01*
X203216571Y-105116604D01*
X203216571Y-105354699D01*
X203264190Y-105455889D01*
X203502285Y-105818985D02*
X203502285Y-106199937D01*
X203835619Y-106003508D02*
X202978476Y-105896366D01*
X202883238Y-105932080D01*
X202835619Y-106021366D01*
X202835619Y-106116604D01*
X202883238Y-106836842D02*
X202835619Y-106735651D01*
X202835619Y-106545175D01*
X202883238Y-106455889D01*
X202978476Y-106420175D01*
X203359428Y-106467794D01*
X203454666Y-106527318D01*
X203502285Y-106628508D01*
X203502285Y-106818985D01*
X203454666Y-106908270D01*
X203359428Y-106943985D01*
X203264190Y-106932080D01*
X203168952Y-106443985D01*
X202835619Y-107735651D02*
X203835619Y-107860651D01*
X202883238Y-107741604D02*
X202835619Y-107640413D01*
X202835619Y-107449937D01*
X202883238Y-107360651D01*
X202930857Y-107318985D01*
X203026095Y-107283270D01*
X203311809Y-107318985D01*
X203407047Y-107378508D01*
X203454666Y-107432080D01*
X203502285Y-107533270D01*
X203502285Y-107723747D01*
X203454666Y-107813032D01*
X202835619Y-108973747D02*
X203835619Y-109098747D01*
X203454666Y-109051127D02*
X203502285Y-109152318D01*
X203502285Y-109342794D01*
X203454666Y-109432080D01*
X203407047Y-109473747D01*
X203311809Y-109509461D01*
X203026095Y-109473747D01*
X202930857Y-109414223D01*
X202883238Y-109360651D01*
X202835619Y-109259461D01*
X202835619Y-109068985D01*
X202883238Y-108979699D01*
X203502285Y-109866604D02*
X202835619Y-110021366D01*
X203502285Y-110342794D02*
X202835619Y-110021366D01*
X202597523Y-109896366D01*
X202549904Y-109842794D01*
X202502285Y-109741604D01*
X201085619Y-105640413D02*
X201561809Y-105366604D01*
X201085619Y-105068985D02*
X202085619Y-105193985D01*
X202085619Y-105574937D01*
X202038000Y-105664223D01*
X201990380Y-105705889D01*
X201895142Y-105741604D01*
X201752285Y-105723747D01*
X201657047Y-105664223D01*
X201609428Y-105610651D01*
X201561809Y-105509461D01*
X201561809Y-105128508D01*
X201371333Y-106057080D02*
X201371333Y-106533270D01*
X201085619Y-105926127D02*
X202085619Y-106384461D01*
X201085619Y-106592794D01*
X201085619Y-106926127D02*
X202085619Y-107051127D01*
X201371333Y-107295175D01*
X202085619Y-107717794D01*
X201085619Y-107592794D01*
D10*
X264062428Y-122078142D02*
X264062428Y-121497571D01*
X264352714Y-121787857D02*
X263772142Y-121787857D01*
X264352714Y-119973571D02*
X263590714Y-119973571D01*
X264135000Y-119719571D01*
X263590714Y-119465571D01*
X264352714Y-119465571D01*
X264135000Y-119139000D02*
X264135000Y-118776142D01*
X264352714Y-119211571D02*
X263590714Y-118957571D01*
X264352714Y-118703571D01*
X264316428Y-118485857D02*
X264352714Y-118377000D01*
X264352714Y-118195571D01*
X264316428Y-118123000D01*
X264280142Y-118086714D01*
X264207571Y-118050428D01*
X264135000Y-118050428D01*
X264062428Y-118086714D01*
X264026142Y-118123000D01*
X263989857Y-118195571D01*
X263953571Y-118340714D01*
X263917285Y-118413285D01*
X263881000Y-118449571D01*
X263808428Y-118485857D01*
X263735857Y-118485857D01*
X263663285Y-118449571D01*
X263627000Y-118413285D01*
X263590714Y-118340714D01*
X263590714Y-118159285D01*
X263627000Y-118050428D01*
X264352714Y-117723857D02*
X263590714Y-117723857D01*
X263953571Y-117723857D02*
X263953571Y-117288428D01*
X264352714Y-117288428D02*
X263590714Y-117288428D01*
X263590714Y-116453857D02*
X263590714Y-116018428D01*
X264352714Y-116236142D02*
X263590714Y-116236142D01*
X264280142Y-115764428D02*
X264316428Y-115728142D01*
X264352714Y-115764428D01*
X264316428Y-115800714D01*
X264280142Y-115764428D01*
X264352714Y-115764428D01*
X264062428Y-114240428D02*
X264062428Y-113659857D01*
X264062428Y-132474000D02*
X264062428Y-131893428D01*
X264352714Y-132183714D02*
X263772142Y-132183714D01*
X264352714Y-130369428D02*
X263590714Y-130369428D01*
X263953571Y-130369428D02*
X263953571Y-129934000D01*
X264352714Y-129934000D02*
X263590714Y-129934000D01*
X264352714Y-129208285D02*
X264352714Y-129571142D01*
X263590714Y-129571142D01*
X263590714Y-129063142D02*
X263590714Y-128627714D01*
X264352714Y-128845428D02*
X263590714Y-128845428D01*
X264062428Y-127212571D02*
X264062428Y-126632000D01*
X222479000Y-148911428D02*
X223059571Y-148911428D01*
X222769285Y-149201714D02*
X222769285Y-148621142D01*
X224474714Y-148439714D02*
X224728714Y-149201714D01*
X224982714Y-148439714D01*
X225200428Y-148984000D02*
X225563285Y-148984000D01*
X225127857Y-149201714D02*
X225381857Y-148439714D01*
X225635857Y-149201714D01*
X226252714Y-149201714D02*
X225889857Y-149201714D01*
X225889857Y-148439714D01*
X226397857Y-148439714D02*
X226651857Y-149201714D01*
X226905857Y-148439714D01*
X227159857Y-148802571D02*
X227413857Y-148802571D01*
X227522714Y-149201714D02*
X227159857Y-149201714D01*
X227159857Y-148439714D01*
X227522714Y-148439714D01*
X229010428Y-148911428D02*
X229591000Y-148911428D01*
X234671000Y-148911428D02*
X235251571Y-148911428D01*
X234961285Y-149201714D02*
X234961285Y-148621142D01*
X237029571Y-148802571D02*
X237138428Y-148838857D01*
X237174714Y-148875142D01*
X237211000Y-148947714D01*
X237211000Y-149056571D01*
X237174714Y-149129142D01*
X237138428Y-149165428D01*
X237065857Y-149201714D01*
X236775571Y-149201714D01*
X236775571Y-148439714D01*
X237029571Y-148439714D01*
X237102142Y-148476000D01*
X237138428Y-148512285D01*
X237174714Y-148584857D01*
X237174714Y-148657428D01*
X237138428Y-148730000D01*
X237102142Y-148766285D01*
X237029571Y-148802571D01*
X236775571Y-148802571D01*
X237537571Y-148439714D02*
X237537571Y-149056571D01*
X237573857Y-149129142D01*
X237610142Y-149165428D01*
X237682714Y-149201714D01*
X237827857Y-149201714D01*
X237900428Y-149165428D01*
X237936714Y-149129142D01*
X237973000Y-149056571D01*
X237973000Y-148439714D01*
X238263285Y-148439714D02*
X238771285Y-148439714D01*
X238263285Y-149201714D01*
X238771285Y-149201714D01*
X238989000Y-148439714D02*
X239497000Y-148439714D01*
X238989000Y-149201714D01*
X239497000Y-149201714D01*
X240948428Y-148911428D02*
X241529000Y-148911428D01*
X248423285Y-148911428D02*
X249003857Y-148911428D01*
X248713571Y-149201714D02*
X248713571Y-148621142D01*
X250527857Y-149201714D02*
X250527857Y-148439714D01*
X250818142Y-148439714D01*
X250890714Y-148476000D01*
X250927000Y-148512285D01*
X250963285Y-148584857D01*
X250963285Y-148693714D01*
X250927000Y-148766285D01*
X250890714Y-148802571D01*
X250818142Y-148838857D01*
X250527857Y-148838857D01*
X251289857Y-148439714D02*
X251289857Y-149056571D01*
X251326142Y-149129142D01*
X251362428Y-149165428D01*
X251435000Y-149201714D01*
X251580142Y-149201714D01*
X251652714Y-149165428D01*
X251689000Y-149129142D01*
X251725285Y-149056571D01*
X251725285Y-148439714D01*
X252088142Y-149201714D02*
X252088142Y-148439714D01*
X252342142Y-148984000D01*
X252596142Y-148439714D01*
X252596142Y-149201714D01*
X252959000Y-149201714D02*
X252959000Y-148439714D01*
X253249285Y-148439714D01*
X253321857Y-148476000D01*
X253358142Y-148512285D01*
X253394428Y-148584857D01*
X253394428Y-148693714D01*
X253358142Y-148766285D01*
X253321857Y-148802571D01*
X253249285Y-148838857D01*
X252959000Y-148838857D01*
X254882142Y-148911428D02*
X255462714Y-148911428D01*
D11*
X206278571Y-102685285D02*
X206278571Y-103447190D01*
X205897619Y-103066238D02*
X206659523Y-103066238D01*
X205897619Y-106971000D02*
X206897619Y-106971000D01*
X206897619Y-107209095D01*
X206850000Y-107351952D01*
X206754761Y-107447190D01*
X206659523Y-107494809D01*
X206469047Y-107542428D01*
X206326190Y-107542428D01*
X206135714Y-107494809D01*
X206040476Y-107447190D01*
X205945238Y-107351952D01*
X205897619Y-107209095D01*
X205897619Y-106971000D01*
X206183333Y-107923380D02*
X206183333Y-108399571D01*
X205897619Y-107828142D02*
X206897619Y-108161476D01*
X205897619Y-108494809D01*
X206897619Y-108685285D02*
X206897619Y-109256714D01*
X205897619Y-108971000D02*
X206897619Y-108971000D01*
X206183333Y-109542428D02*
X206183333Y-110018619D01*
X205897619Y-109447190D02*
X206897619Y-109780523D01*
X205897619Y-110113857D01*
X206278571Y-113494809D02*
X206278571Y-114256714D01*
X206151571Y-118687285D02*
X206151571Y-119449190D01*
X205770619Y-119068238D02*
X206532523Y-119068238D01*
X205770619Y-122973000D02*
X206770619Y-122973000D01*
X206770619Y-123211095D01*
X206723000Y-123353952D01*
X206627761Y-123449190D01*
X206532523Y-123496809D01*
X206342047Y-123544428D01*
X206199190Y-123544428D01*
X206008714Y-123496809D01*
X205913476Y-123449190D01*
X205818238Y-123353952D01*
X205770619Y-123211095D01*
X205770619Y-122973000D01*
X206056333Y-123925380D02*
X206056333Y-124401571D01*
X205770619Y-123830142D02*
X206770619Y-124163476D01*
X205770619Y-124496809D01*
X206770619Y-124687285D02*
X206770619Y-125258714D01*
X205770619Y-124973000D02*
X206770619Y-124973000D01*
X206056333Y-125544428D02*
X206056333Y-126020619D01*
X205770619Y-125449190D02*
X206770619Y-125782523D01*
X205770619Y-126115857D01*
X206151571Y-129496809D02*
X206151571Y-130258714D01*
X206278571Y-135070285D02*
X206278571Y-135832190D01*
X205897619Y-135451238D02*
X206659523Y-135451238D01*
X205897619Y-139356000D02*
X206897619Y-139356000D01*
X206897619Y-139594095D01*
X206850000Y-139736952D01*
X206754761Y-139832190D01*
X206659523Y-139879809D01*
X206469047Y-139927428D01*
X206326190Y-139927428D01*
X206135714Y-139879809D01*
X206040476Y-139832190D01*
X205945238Y-139736952D01*
X205897619Y-139594095D01*
X205897619Y-139356000D01*
X206183333Y-140308380D02*
X206183333Y-140784571D01*
X205897619Y-140213142D02*
X206897619Y-140546476D01*
X205897619Y-140879809D01*
X206897619Y-141070285D02*
X206897619Y-141641714D01*
X205897619Y-141356000D02*
X206897619Y-141356000D01*
X206183333Y-141927428D02*
X206183333Y-142403619D01*
X205897619Y-141832190D02*
X206897619Y-142165523D01*
X205897619Y-142498857D01*
X206278571Y-145879809D02*
X206278571Y-146641714D01*
X208310619Y-136490952D02*
X209310619Y-136490952D01*
X209310619Y-136729047D01*
X209263000Y-136871904D01*
X209167761Y-136967142D01*
X209072523Y-137014761D01*
X208882047Y-137062380D01*
X208739190Y-137062380D01*
X208548714Y-137014761D01*
X208453476Y-136967142D01*
X208358238Y-136871904D01*
X208310619Y-136729047D01*
X208310619Y-136490952D01*
X208358238Y-137443333D02*
X208310619Y-137586190D01*
X208310619Y-137824285D01*
X208358238Y-137919523D01*
X208405857Y-137967142D01*
X208501095Y-138014761D01*
X208596333Y-138014761D01*
X208691571Y-137967142D01*
X208739190Y-137919523D01*
X208786809Y-137824285D01*
X208834428Y-137633809D01*
X208882047Y-137538571D01*
X208929666Y-137490952D01*
X209024904Y-137443333D01*
X209120142Y-137443333D01*
X209215380Y-137490952D01*
X209263000Y-137538571D01*
X209310619Y-137633809D01*
X209310619Y-137871904D01*
X209263000Y-138014761D01*
X208310619Y-138967142D02*
X208310619Y-138395714D01*
X208310619Y-138681428D02*
X209310619Y-138681428D01*
X209167761Y-138586190D01*
X209072523Y-138490952D01*
X209024904Y-138395714D01*
X208882047Y-139538571D02*
X208929666Y-139443333D01*
X208977285Y-139395714D01*
X209072523Y-139348095D01*
X209120142Y-139348095D01*
X209215380Y-139395714D01*
X209263000Y-139443333D01*
X209310619Y-139538571D01*
X209310619Y-139729047D01*
X209263000Y-139824285D01*
X209215380Y-139871904D01*
X209120142Y-139919523D01*
X209072523Y-139919523D01*
X208977285Y-139871904D01*
X208929666Y-139824285D01*
X208882047Y-139729047D01*
X208882047Y-139538571D01*
X208834428Y-139443333D01*
X208786809Y-139395714D01*
X208691571Y-139348095D01*
X208501095Y-139348095D01*
X208405857Y-139395714D01*
X208358238Y-139443333D01*
X208310619Y-139538571D01*
X208310619Y-139729047D01*
X208358238Y-139824285D01*
X208405857Y-139871904D01*
X208501095Y-139919523D01*
X208691571Y-139919523D01*
X208786809Y-139871904D01*
X208834428Y-139824285D01*
X208882047Y-139729047D01*
X208834428Y-140681428D02*
X208786809Y-140824285D01*
X208739190Y-140871904D01*
X208643952Y-140919523D01*
X208501095Y-140919523D01*
X208405857Y-140871904D01*
X208358238Y-140824285D01*
X208310619Y-140729047D01*
X208310619Y-140348095D01*
X209310619Y-140348095D01*
X209310619Y-140681428D01*
X209263000Y-140776666D01*
X209215380Y-140824285D01*
X209120142Y-140871904D01*
X209024904Y-140871904D01*
X208929666Y-140824285D01*
X208882047Y-140776666D01*
X208834428Y-140681428D01*
X208834428Y-140348095D01*
X209215380Y-141300476D02*
X209263000Y-141348095D01*
X209310619Y-141443333D01*
X209310619Y-141681428D01*
X209263000Y-141776666D01*
X209215380Y-141824285D01*
X209120142Y-141871904D01*
X209024904Y-141871904D01*
X208882047Y-141824285D01*
X208310619Y-141252857D01*
X208310619Y-141871904D01*
X209310619Y-142490952D02*
X209310619Y-142586190D01*
X209263000Y-142681428D01*
X209215380Y-142729047D01*
X209120142Y-142776666D01*
X208929666Y-142824285D01*
X208691571Y-142824285D01*
X208501095Y-142776666D01*
X208405857Y-142729047D01*
X208358238Y-142681428D01*
X208310619Y-142586190D01*
X208310619Y-142490952D01*
X208358238Y-142395714D01*
X208405857Y-142348095D01*
X208501095Y-142300476D01*
X208691571Y-142252857D01*
X208929666Y-142252857D01*
X209120142Y-142300476D01*
X209215380Y-142348095D01*
X209263000Y-142395714D01*
X209310619Y-142490952D01*
X208310619Y-143252857D02*
X209310619Y-143252857D01*
X209310619Y-143490952D01*
X209263000Y-143633809D01*
X209167761Y-143729047D01*
X209072523Y-143776666D01*
X208882047Y-143824285D01*
X208739190Y-143824285D01*
X208548714Y-143776666D01*
X208453476Y-143729047D01*
X208358238Y-143633809D01*
X208310619Y-143490952D01*
X208310619Y-143252857D01*
X208977285Y-144205238D02*
X208977285Y-144919523D01*
X209405857Y-144490952D02*
X208120142Y-144205238D01*
X208548714Y-144824285D02*
X208548714Y-144110000D01*
X208120142Y-144538571D02*
X209405857Y-144824285D01*
X209310619Y-145157619D02*
X209310619Y-145776666D01*
X208929666Y-145443333D01*
X208929666Y-145586190D01*
X208882047Y-145681428D01*
X208834428Y-145729047D01*
X208739190Y-145776666D01*
X208501095Y-145776666D01*
X208405857Y-145729047D01*
X208358238Y-145681428D01*
X208310619Y-145586190D01*
X208310619Y-145300476D01*
X208358238Y-145205238D01*
X208405857Y-145157619D01*
X208183619Y-119980952D02*
X209183619Y-119980952D01*
X209183619Y-120219047D01*
X209136000Y-120361904D01*
X209040761Y-120457142D01*
X208945523Y-120504761D01*
X208755047Y-120552380D01*
X208612190Y-120552380D01*
X208421714Y-120504761D01*
X208326476Y-120457142D01*
X208231238Y-120361904D01*
X208183619Y-120219047D01*
X208183619Y-119980952D01*
X208231238Y-120933333D02*
X208183619Y-121076190D01*
X208183619Y-121314285D01*
X208231238Y-121409523D01*
X208278857Y-121457142D01*
X208374095Y-121504761D01*
X208469333Y-121504761D01*
X208564571Y-121457142D01*
X208612190Y-121409523D01*
X208659809Y-121314285D01*
X208707428Y-121123809D01*
X208755047Y-121028571D01*
X208802666Y-120980952D01*
X208897904Y-120933333D01*
X208993142Y-120933333D01*
X209088380Y-120980952D01*
X209136000Y-121028571D01*
X209183619Y-121123809D01*
X209183619Y-121361904D01*
X209136000Y-121504761D01*
X208183619Y-122457142D02*
X208183619Y-121885714D01*
X208183619Y-122171428D02*
X209183619Y-122171428D01*
X209040761Y-122076190D01*
X208945523Y-121980952D01*
X208897904Y-121885714D01*
X208755047Y-123028571D02*
X208802666Y-122933333D01*
X208850285Y-122885714D01*
X208945523Y-122838095D01*
X208993142Y-122838095D01*
X209088380Y-122885714D01*
X209136000Y-122933333D01*
X209183619Y-123028571D01*
X209183619Y-123219047D01*
X209136000Y-123314285D01*
X209088380Y-123361904D01*
X208993142Y-123409523D01*
X208945523Y-123409523D01*
X208850285Y-123361904D01*
X208802666Y-123314285D01*
X208755047Y-123219047D01*
X208755047Y-123028571D01*
X208707428Y-122933333D01*
X208659809Y-122885714D01*
X208564571Y-122838095D01*
X208374095Y-122838095D01*
X208278857Y-122885714D01*
X208231238Y-122933333D01*
X208183619Y-123028571D01*
X208183619Y-123219047D01*
X208231238Y-123314285D01*
X208278857Y-123361904D01*
X208374095Y-123409523D01*
X208564571Y-123409523D01*
X208659809Y-123361904D01*
X208707428Y-123314285D01*
X208755047Y-123219047D01*
X208707428Y-124171428D02*
X208659809Y-124314285D01*
X208612190Y-124361904D01*
X208516952Y-124409523D01*
X208374095Y-124409523D01*
X208278857Y-124361904D01*
X208231238Y-124314285D01*
X208183619Y-124219047D01*
X208183619Y-123838095D01*
X209183619Y-123838095D01*
X209183619Y-124171428D01*
X209136000Y-124266666D01*
X209088380Y-124314285D01*
X208993142Y-124361904D01*
X208897904Y-124361904D01*
X208802666Y-124314285D01*
X208755047Y-124266666D01*
X208707428Y-124171428D01*
X208707428Y-123838095D01*
X209088380Y-124790476D02*
X209136000Y-124838095D01*
X209183619Y-124933333D01*
X209183619Y-125171428D01*
X209136000Y-125266666D01*
X209088380Y-125314285D01*
X208993142Y-125361904D01*
X208897904Y-125361904D01*
X208755047Y-125314285D01*
X208183619Y-124742857D01*
X208183619Y-125361904D01*
X209183619Y-125980952D02*
X209183619Y-126076190D01*
X209136000Y-126171428D01*
X209088380Y-126219047D01*
X208993142Y-126266666D01*
X208802666Y-126314285D01*
X208564571Y-126314285D01*
X208374095Y-126266666D01*
X208278857Y-126219047D01*
X208231238Y-126171428D01*
X208183619Y-126076190D01*
X208183619Y-125980952D01*
X208231238Y-125885714D01*
X208278857Y-125838095D01*
X208374095Y-125790476D01*
X208564571Y-125742857D01*
X208802666Y-125742857D01*
X208993142Y-125790476D01*
X209088380Y-125838095D01*
X209136000Y-125885714D01*
X209183619Y-125980952D01*
X208183619Y-126742857D02*
X209183619Y-126742857D01*
X209183619Y-126980952D01*
X209136000Y-127123809D01*
X209040761Y-127219047D01*
X208945523Y-127266666D01*
X208755047Y-127314285D01*
X208612190Y-127314285D01*
X208421714Y-127266666D01*
X208326476Y-127219047D01*
X208231238Y-127123809D01*
X208183619Y-126980952D01*
X208183619Y-126742857D01*
X208850285Y-127695238D02*
X208850285Y-128409523D01*
X209278857Y-127980952D02*
X207993142Y-127695238D01*
X208421714Y-128314285D02*
X208421714Y-127600000D01*
X207993142Y-128028571D02*
X209278857Y-128314285D01*
X209088380Y-128695238D02*
X209136000Y-128742857D01*
X209183619Y-128838095D01*
X209183619Y-129076190D01*
X209136000Y-129171428D01*
X209088380Y-129219047D01*
X208993142Y-129266666D01*
X208897904Y-129266666D01*
X208755047Y-129219047D01*
X208183619Y-128647619D01*
X208183619Y-129266666D01*
X208183619Y-104232952D02*
X209183619Y-104232952D01*
X209183619Y-104471047D01*
X209136000Y-104613904D01*
X209040761Y-104709142D01*
X208945523Y-104756761D01*
X208755047Y-104804380D01*
X208612190Y-104804380D01*
X208421714Y-104756761D01*
X208326476Y-104709142D01*
X208231238Y-104613904D01*
X208183619Y-104471047D01*
X208183619Y-104232952D01*
X208231238Y-105185333D02*
X208183619Y-105328190D01*
X208183619Y-105566285D01*
X208231238Y-105661523D01*
X208278857Y-105709142D01*
X208374095Y-105756761D01*
X208469333Y-105756761D01*
X208564571Y-105709142D01*
X208612190Y-105661523D01*
X208659809Y-105566285D01*
X208707428Y-105375809D01*
X208755047Y-105280571D01*
X208802666Y-105232952D01*
X208897904Y-105185333D01*
X208993142Y-105185333D01*
X209088380Y-105232952D01*
X209136000Y-105280571D01*
X209183619Y-105375809D01*
X209183619Y-105613904D01*
X209136000Y-105756761D01*
X208183619Y-106709142D02*
X208183619Y-106137714D01*
X208183619Y-106423428D02*
X209183619Y-106423428D01*
X209040761Y-106328190D01*
X208945523Y-106232952D01*
X208897904Y-106137714D01*
X208755047Y-107280571D02*
X208802666Y-107185333D01*
X208850285Y-107137714D01*
X208945523Y-107090095D01*
X208993142Y-107090095D01*
X209088380Y-107137714D01*
X209136000Y-107185333D01*
X209183619Y-107280571D01*
X209183619Y-107471047D01*
X209136000Y-107566285D01*
X209088380Y-107613904D01*
X208993142Y-107661523D01*
X208945523Y-107661523D01*
X208850285Y-107613904D01*
X208802666Y-107566285D01*
X208755047Y-107471047D01*
X208755047Y-107280571D01*
X208707428Y-107185333D01*
X208659809Y-107137714D01*
X208564571Y-107090095D01*
X208374095Y-107090095D01*
X208278857Y-107137714D01*
X208231238Y-107185333D01*
X208183619Y-107280571D01*
X208183619Y-107471047D01*
X208231238Y-107566285D01*
X208278857Y-107613904D01*
X208374095Y-107661523D01*
X208564571Y-107661523D01*
X208659809Y-107613904D01*
X208707428Y-107566285D01*
X208755047Y-107471047D01*
X208707428Y-108423428D02*
X208659809Y-108566285D01*
X208612190Y-108613904D01*
X208516952Y-108661523D01*
X208374095Y-108661523D01*
X208278857Y-108613904D01*
X208231238Y-108566285D01*
X208183619Y-108471047D01*
X208183619Y-108090095D01*
X209183619Y-108090095D01*
X209183619Y-108423428D01*
X209136000Y-108518666D01*
X209088380Y-108566285D01*
X208993142Y-108613904D01*
X208897904Y-108613904D01*
X208802666Y-108566285D01*
X208755047Y-108518666D01*
X208707428Y-108423428D01*
X208707428Y-108090095D01*
X209088380Y-109042476D02*
X209136000Y-109090095D01*
X209183619Y-109185333D01*
X209183619Y-109423428D01*
X209136000Y-109518666D01*
X209088380Y-109566285D01*
X208993142Y-109613904D01*
X208897904Y-109613904D01*
X208755047Y-109566285D01*
X208183619Y-108994857D01*
X208183619Y-109613904D01*
X209183619Y-110232952D02*
X209183619Y-110328190D01*
X209136000Y-110423428D01*
X209088380Y-110471047D01*
X208993142Y-110518666D01*
X208802666Y-110566285D01*
X208564571Y-110566285D01*
X208374095Y-110518666D01*
X208278857Y-110471047D01*
X208231238Y-110423428D01*
X208183619Y-110328190D01*
X208183619Y-110232952D01*
X208231238Y-110137714D01*
X208278857Y-110090095D01*
X208374095Y-110042476D01*
X208564571Y-109994857D01*
X208802666Y-109994857D01*
X208993142Y-110042476D01*
X209088380Y-110090095D01*
X209136000Y-110137714D01*
X209183619Y-110232952D01*
X208183619Y-110994857D02*
X209183619Y-110994857D01*
X209183619Y-111232952D01*
X209136000Y-111375809D01*
X209040761Y-111471047D01*
X208945523Y-111518666D01*
X208755047Y-111566285D01*
X208612190Y-111566285D01*
X208421714Y-111518666D01*
X208326476Y-111471047D01*
X208231238Y-111375809D01*
X208183619Y-111232952D01*
X208183619Y-110994857D01*
X208850285Y-111947238D02*
X208850285Y-112661523D01*
X209278857Y-112232952D02*
X207993142Y-111947238D01*
X208421714Y-112566285D02*
X208421714Y-111852000D01*
X207993142Y-112280571D02*
X209278857Y-112566285D01*
X208183619Y-113518666D02*
X208183619Y-112947238D01*
X208183619Y-113232952D02*
X209183619Y-113232952D01*
X209040761Y-113137714D01*
X208945523Y-113042476D01*
X208897904Y-112947238D01*
D12*
X227205000Y-131807000D02*
X229945000Y-131807000D01*
X229945000Y-131807000D02*
X229945000Y-125267000D01*
X229945000Y-125267000D02*
X227205000Y-125267000D01*
X227205000Y-125267000D02*
X227205000Y-131807000D01*
X228575000Y-132577000D02*
X228575000Y-131807000D01*
X228575000Y-124497000D02*
X228575000Y-125267000D01*
X231568000Y-135064000D02*
X220718000Y-135064000D01*
X231568000Y-140164000D02*
X231568000Y-135064000D01*
X231068000Y-139864000D02*
X231568000Y-140164000D01*
X231068000Y-145264000D02*
X231068000Y-139864000D01*
X231568000Y-145014000D02*
X231068000Y-145264000D01*
X231568000Y-145064000D02*
X231568000Y-145014000D01*
X231568000Y-146964000D02*
X231568000Y-145064000D01*
X231068000Y-146714000D02*
X231568000Y-146964000D01*
X231068000Y-147664000D02*
X231068000Y-146714000D01*
X220718000Y-147664000D02*
X231068000Y-147664000D01*
X220718000Y-135064000D02*
X220718000Y-147664000D01*
X241650000Y-118885000D02*
G75*
G03*
X241650000Y-118885000I-6100000J0D01*
G01*
X219889000Y-133126000D02*
X207289000Y-133126000D01*
X207289000Y-133126000D02*
X207289000Y-148526000D01*
X207289000Y-148526000D02*
X208239000Y-148526000D01*
X208239000Y-148526000D02*
X207939000Y-149026000D01*
X207939000Y-149026000D02*
X209939000Y-149026000D01*
X209939000Y-149026000D02*
X209689000Y-148526000D01*
X209689000Y-148526000D02*
X215089000Y-148526000D01*
X215089000Y-148526000D02*
X214839000Y-149026000D01*
X214839000Y-149026000D02*
X219889000Y-149026000D01*
X219889000Y-149026000D02*
X219889000Y-133126000D01*
X245191000Y-113952000D02*
X248281000Y-113952000D01*
X249236000Y-111392000D02*
G75*
G03*
X249236000Y-111392000I-2500000J0D01*
G01*
X246736462Y-108402000D02*
G75*
G03*
X245191170Y-113952000I-462J-2990000D01*
G01*
X246735538Y-108402000D02*
G75*
G02*
X248280830Y-113952000I462J-2990000D01*
G01*
X226122000Y-129680000D02*
G75*
G03*
X226122000Y-129680000I-2500000J0D01*
G01*
X226182000Y-131225000D02*
X226182000Y-128135000D01*
X220632000Y-129680462D02*
G75*
G02*
X226182000Y-128135170I2990000J462D01*
G01*
X220632000Y-129679538D02*
G75*
G03*
X226182000Y-131224830I2990000J-462D01*
G01*
X237866000Y-130463000D02*
X237866000Y-127373000D01*
X237806000Y-128918000D02*
G75*
G03*
X237806000Y-128918000I-2500000J0D01*
G01*
X232316000Y-128917538D02*
G75*
G03*
X237866000Y-130462830I2990000J-462D01*
G01*
X232316000Y-128918462D02*
G75*
G02*
X237866000Y-127373170I2990000J462D01*
G01*
X249236000Y-118504000D02*
G75*
G03*
X249236000Y-118504000I-2500000J0D01*
G01*
X245191000Y-121064000D02*
X248281000Y-121064000D01*
X246735538Y-115514000D02*
G75*
G02*
X248280830Y-121064000I462J-2990000D01*
G01*
X246736462Y-115514000D02*
G75*
G03*
X245191170Y-121064000I-462J-2990000D01*
G01*
X249236000Y-104534000D02*
G75*
G03*
X249236000Y-104534000I-2500000J0D01*
G01*
X245191000Y-107094000D02*
X248281000Y-107094000D01*
X246735538Y-101544000D02*
G75*
G02*
X248280830Y-107094000I462J-2990000D01*
G01*
X246736462Y-101544000D02*
G75*
G03*
X245191170Y-107094000I-462J-2990000D01*
G01*
X258654000Y-138422000D02*
X258654000Y-141512000D01*
X263714000Y-139967000D02*
G75*
G03*
X263714000Y-139967000I-2500000J0D01*
G01*
X264204000Y-139967462D02*
G75*
G03*
X258654000Y-138422170I-2990000J462D01*
G01*
X264204000Y-139966538D02*
G75*
G02*
X258654000Y-141511830I-2990000J-462D01*
G01*
X250469000Y-122932000D02*
X263069000Y-122932000D01*
X263069000Y-122932000D02*
X263069000Y-112582000D01*
X263069000Y-112582000D02*
X262119000Y-112582000D01*
X262119000Y-112582000D02*
X262369000Y-112082000D01*
X262369000Y-112082000D02*
X260469000Y-112082000D01*
X260469000Y-112082000D02*
X260419000Y-112082000D01*
X260419000Y-112082000D02*
X260669000Y-112582000D01*
X260669000Y-112582000D02*
X255269000Y-112582000D01*
X255269000Y-112582000D02*
X255569000Y-112082000D01*
X255569000Y-112082000D02*
X250469000Y-112082000D01*
X250469000Y-112082000D02*
X250469000Y-122932000D01*
X219889000Y-132770000D02*
X219889000Y-116870000D01*
X214839000Y-132770000D02*
X219889000Y-132770000D01*
X215089000Y-132270000D02*
X214839000Y-132770000D01*
X209689000Y-132270000D02*
X215089000Y-132270000D01*
X209939000Y-132770000D02*
X209689000Y-132270000D01*
X207939000Y-132770000D02*
X209939000Y-132770000D01*
X208239000Y-132270000D02*
X207939000Y-132770000D01*
X207289000Y-132270000D02*
X208239000Y-132270000D01*
X207289000Y-116870000D02*
X207289000Y-132270000D01*
X219889000Y-116870000D02*
X207289000Y-116870000D01*
X243760000Y-135064000D02*
X232910000Y-135064000D01*
X243760000Y-140164000D02*
X243760000Y-135064000D01*
X243260000Y-139864000D02*
X243760000Y-140164000D01*
X243260000Y-145264000D02*
X243260000Y-139864000D01*
X243760000Y-145014000D02*
X243260000Y-145264000D01*
X243760000Y-145064000D02*
X243760000Y-145014000D01*
X243760000Y-146964000D02*
X243760000Y-145064000D01*
X243260000Y-146714000D02*
X243760000Y-146964000D01*
X243260000Y-147664000D02*
X243260000Y-146714000D01*
X232910000Y-147664000D02*
X243260000Y-147664000D01*
X232910000Y-135064000D02*
X232910000Y-147664000D01*
X250342000Y-134616000D02*
X262942000Y-134616000D01*
X262942000Y-134616000D02*
X262942000Y-124266000D01*
X262942000Y-124266000D02*
X261992000Y-124266000D01*
X261992000Y-124266000D02*
X262242000Y-123766000D01*
X262242000Y-123766000D02*
X260342000Y-123766000D01*
X260342000Y-123766000D02*
X260292000Y-123766000D01*
X260292000Y-123766000D02*
X260542000Y-124266000D01*
X260542000Y-124266000D02*
X255142000Y-124266000D01*
X255142000Y-124266000D02*
X255442000Y-123766000D01*
X255442000Y-123766000D02*
X250342000Y-123766000D01*
X250342000Y-123766000D02*
X250342000Y-134616000D01*
X250469000Y-100525000D02*
X250469000Y-111375000D01*
X255569000Y-100525000D02*
X250469000Y-100525000D01*
X255269000Y-101025000D02*
X255569000Y-100525000D01*
X260669000Y-101025000D02*
X255269000Y-101025000D01*
X260419000Y-100525000D02*
X260669000Y-101025000D01*
X260469000Y-100525000D02*
X260419000Y-100525000D01*
X262369000Y-100525000D02*
X260469000Y-100525000D01*
X262119000Y-101025000D02*
X262369000Y-100525000D01*
X263069000Y-101025000D02*
X262119000Y-101025000D01*
X263069000Y-111375000D02*
X263069000Y-101025000D01*
X250469000Y-111375000D02*
X263069000Y-111375000D01*
X246499000Y-135191000D02*
X246499000Y-147791000D01*
X246499000Y-147791000D02*
X256849000Y-147791000D01*
X256849000Y-147791000D02*
X256849000Y-146841000D01*
X256849000Y-146841000D02*
X257349000Y-147091000D01*
X257349000Y-147091000D02*
X257349000Y-145191000D01*
X257349000Y-145191000D02*
X257349000Y-145141000D01*
X257349000Y-145141000D02*
X256849000Y-145391000D01*
X256849000Y-145391000D02*
X256849000Y-139991000D01*
X256849000Y-139991000D02*
X257349000Y-140291000D01*
X257349000Y-140291000D02*
X257349000Y-135191000D01*
X257349000Y-135191000D02*
X246499000Y-135191000D01*
X219889000Y-116514000D02*
X219889000Y-100614000D01*
X214839000Y-116514000D02*
X219889000Y-116514000D01*
X215089000Y-116014000D02*
X214839000Y-116514000D01*
X209689000Y-116014000D02*
X215089000Y-116014000D01*
X209939000Y-116514000D02*
X209689000Y-116014000D01*
X207939000Y-116514000D02*
X209939000Y-116514000D01*
X208239000Y-116014000D02*
X207939000Y-116514000D01*
X207289000Y-116014000D02*
X208239000Y-116014000D01*
X207289000Y-100614000D02*
X207289000Y-116014000D01*
X219889000Y-100614000D02*
X207289000Y-100614000D01*
X222225000Y-120385000D02*
X222225000Y-119615000D01*
X222225000Y-112305000D02*
X222225000Y-113075000D01*
X223595000Y-119615000D02*
X223595000Y-113075000D01*
X220855000Y-119615000D02*
X223595000Y-119615000D01*
X220855000Y-113075000D02*
X220855000Y-119615000D01*
X223595000Y-113075000D02*
X220855000Y-113075000D01*
X233528000Y-110352000D02*
X233528000Y-109582000D01*
X233528000Y-102272000D02*
X233528000Y-103042000D01*
X234898000Y-109582000D02*
X234898000Y-103042000D01*
X232158000Y-109582000D02*
X234898000Y-109582000D01*
X232158000Y-103042000D02*
X232158000Y-109582000D01*
X234898000Y-103042000D02*
X232158000Y-103042000D01*
X242164000Y-124624000D02*
X242164000Y-125394000D01*
X242164000Y-132704000D02*
X242164000Y-131934000D01*
X240794000Y-125394000D02*
X240794000Y-131934000D01*
X243534000Y-125394000D02*
X240794000Y-125394000D01*
X243534000Y-131934000D02*
X243534000Y-125394000D01*
X240794000Y-131934000D02*
X243534000Y-131934000D01*
X230326000Y-103042000D02*
X227586000Y-103042000D01*
X227586000Y-103042000D02*
X227586000Y-109582000D01*
X227586000Y-109582000D02*
X230326000Y-109582000D01*
X230326000Y-109582000D02*
X230326000Y-103042000D01*
X228956000Y-102272000D02*
X228956000Y-103042000D01*
X228956000Y-110352000D02*
X228956000Y-109582000D01*
X238962000Y-103042000D02*
X236222000Y-103042000D01*
X236222000Y-103042000D02*
X236222000Y-109582000D01*
X236222000Y-109582000D02*
X238962000Y-109582000D01*
X238962000Y-109582000D02*
X238962000Y-103042000D01*
X237592000Y-102272000D02*
X237592000Y-103042000D01*
X237592000Y-110352000D02*
X237592000Y-109582000D01*
X247752000Y-132704000D02*
X247752000Y-131934000D01*
X247752000Y-124624000D02*
X247752000Y-125394000D01*
X249122000Y-131934000D02*
X249122000Y-125394000D01*
X246382000Y-131934000D02*
X249122000Y-131934000D01*
X246382000Y-125394000D02*
X246382000Y-131934000D01*
X249122000Y-125394000D02*
X246382000Y-125394000D01*
D13*
X229027380Y-128957666D02*
X228551190Y-129291000D01*
X229027380Y-129529095D02*
X228027380Y-129529095D01*
X228027380Y-129148142D01*
X228075000Y-129052904D01*
X228122619Y-129005285D01*
X228217857Y-128957666D01*
X228360714Y-128957666D01*
X228455952Y-129005285D01*
X228503571Y-129052904D01*
X228551190Y-129148142D01*
X228551190Y-129529095D01*
X228027380Y-128624333D02*
X228027380Y-128005285D01*
X228408333Y-128338619D01*
X228408333Y-128195761D01*
X228455952Y-128100523D01*
X228503571Y-128052904D01*
X228598809Y-128005285D01*
X228836904Y-128005285D01*
X228932142Y-128052904D01*
X228979761Y-128100523D01*
X229027380Y-128195761D01*
X229027380Y-128481476D01*
X228979761Y-128576714D01*
X228932142Y-128624333D01*
X225574666Y-140689380D02*
X225574666Y-141403666D01*
X225527047Y-141546523D01*
X225431809Y-141641761D01*
X225288952Y-141689380D01*
X225193714Y-141689380D01*
X226479428Y-141022714D02*
X226479428Y-141689380D01*
X226241333Y-140641761D02*
X226003238Y-141356047D01*
X226622285Y-141356047D01*
X234679047Y-118813571D02*
X234821904Y-118861190D01*
X234869523Y-118908809D01*
X234917142Y-119004047D01*
X234917142Y-119146904D01*
X234869523Y-119242142D01*
X234821904Y-119289761D01*
X234726666Y-119337380D01*
X234345714Y-119337380D01*
X234345714Y-118337380D01*
X234679047Y-118337380D01*
X234774285Y-118385000D01*
X234821904Y-118432619D01*
X234869523Y-118527857D01*
X234869523Y-118623095D01*
X234821904Y-118718333D01*
X234774285Y-118765952D01*
X234679047Y-118813571D01*
X234345714Y-118813571D01*
X235250476Y-118337380D02*
X235917142Y-118337380D01*
X235250476Y-119337380D01*
X235917142Y-119337380D01*
X236821904Y-119337380D02*
X236250476Y-119337380D01*
X236536190Y-119337380D02*
X236536190Y-118337380D01*
X236440952Y-118480238D01*
X236345714Y-118575476D01*
X236250476Y-118623095D01*
X231359047Y-116416428D02*
X232120952Y-116416428D01*
X231740000Y-116797380D02*
X231740000Y-116035476D01*
X217105380Y-141189333D02*
X217819666Y-141189333D01*
X217962523Y-141236952D01*
X218057761Y-141332190D01*
X218105380Y-141475047D01*
X218105380Y-141570285D01*
X218105380Y-140665523D02*
X218105380Y-140475047D01*
X218057761Y-140379809D01*
X218010142Y-140332190D01*
X217867285Y-140236952D01*
X217676809Y-140189333D01*
X217295857Y-140189333D01*
X217200619Y-140236952D01*
X217153000Y-140284571D01*
X217105380Y-140379809D01*
X217105380Y-140570285D01*
X217153000Y-140665523D01*
X217200619Y-140713142D01*
X217295857Y-140760761D01*
X217533952Y-140760761D01*
X217629190Y-140713142D01*
X217676809Y-140665523D01*
X217724428Y-140570285D01*
X217724428Y-140379809D01*
X217676809Y-140284571D01*
X217629190Y-140236952D01*
X217533952Y-140189333D01*
X243228380Y-112130095D02*
X242228380Y-112130095D01*
X242228380Y-111892000D01*
X242276000Y-111749142D01*
X242371238Y-111653904D01*
X242466476Y-111606285D01*
X242656952Y-111558666D01*
X242799809Y-111558666D01*
X242990285Y-111606285D01*
X243085523Y-111653904D01*
X243180761Y-111749142D01*
X243228380Y-111892000D01*
X243228380Y-112130095D01*
X243228380Y-110606285D02*
X243228380Y-111177714D01*
X243228380Y-110892000D02*
X242228380Y-110892000D01*
X242371238Y-110987238D01*
X242466476Y-111082476D01*
X242514095Y-111177714D01*
X222883904Y-134092380D02*
X222883904Y-133092380D01*
X223122000Y-133092380D01*
X223264857Y-133140000D01*
X223360095Y-133235238D01*
X223407714Y-133330476D01*
X223455333Y-133520952D01*
X223455333Y-133663809D01*
X223407714Y-133854285D01*
X223360095Y-133949523D01*
X223264857Y-134044761D01*
X223122000Y-134092380D01*
X222883904Y-134092380D01*
X223836285Y-133187619D02*
X223883904Y-133140000D01*
X223979142Y-133092380D01*
X224217238Y-133092380D01*
X224312476Y-133140000D01*
X224360095Y-133187619D01*
X224407714Y-133282857D01*
X224407714Y-133378095D01*
X224360095Y-133520952D01*
X223788666Y-134092380D01*
X224407714Y-134092380D01*
X234567904Y-133330380D02*
X234567904Y-132330380D01*
X234806000Y-132330380D01*
X234948857Y-132378000D01*
X235044095Y-132473238D01*
X235091714Y-132568476D01*
X235139333Y-132758952D01*
X235139333Y-132901809D01*
X235091714Y-133092285D01*
X235044095Y-133187523D01*
X234948857Y-133282761D01*
X234806000Y-133330380D01*
X234567904Y-133330380D01*
X235472666Y-132330380D02*
X236091714Y-132330380D01*
X235758380Y-132711333D01*
X235901238Y-132711333D01*
X235996476Y-132758952D01*
X236044095Y-132806571D01*
X236091714Y-132901809D01*
X236091714Y-133139904D01*
X236044095Y-133235142D01*
X235996476Y-133282761D01*
X235901238Y-133330380D01*
X235615523Y-133330380D01*
X235520285Y-133282761D01*
X235472666Y-133235142D01*
X243228380Y-119242095D02*
X242228380Y-119242095D01*
X242228380Y-119004000D01*
X242276000Y-118861142D01*
X242371238Y-118765904D01*
X242466476Y-118718285D01*
X242656952Y-118670666D01*
X242799809Y-118670666D01*
X242990285Y-118718285D01*
X243085523Y-118765904D01*
X243180761Y-118861142D01*
X243228380Y-119004000D01*
X243228380Y-119242095D01*
X242561714Y-117813523D02*
X243228380Y-117813523D01*
X242180761Y-118051619D02*
X242895047Y-118289714D01*
X242895047Y-117670666D01*
X243228380Y-105272095D02*
X242228380Y-105272095D01*
X242228380Y-105034000D01*
X242276000Y-104891142D01*
X242371238Y-104795904D01*
X242466476Y-104748285D01*
X242656952Y-104700666D01*
X242799809Y-104700666D01*
X242990285Y-104748285D01*
X243085523Y-104795904D01*
X243180761Y-104891142D01*
X243228380Y-105034000D01*
X243228380Y-105272095D01*
X242228380Y-103795904D02*
X242228380Y-104272095D01*
X242704571Y-104319714D01*
X242656952Y-104272095D01*
X242609333Y-104176857D01*
X242609333Y-103938761D01*
X242656952Y-103843523D01*
X242704571Y-103795904D01*
X242799809Y-103748285D01*
X243037904Y-103748285D01*
X243133142Y-103795904D01*
X243180761Y-103843523D01*
X243228380Y-103938761D01*
X243228380Y-104176857D01*
X243180761Y-104272095D01*
X243133142Y-104319714D01*
X260475904Y-136459380D02*
X260475904Y-135459380D01*
X260714000Y-135459380D01*
X260856857Y-135507000D01*
X260952095Y-135602238D01*
X260999714Y-135697476D01*
X261047333Y-135887952D01*
X261047333Y-136030809D01*
X260999714Y-136221285D01*
X260952095Y-136316523D01*
X260856857Y-136411761D01*
X260714000Y-136459380D01*
X260475904Y-136459380D01*
X261904476Y-135459380D02*
X261714000Y-135459380D01*
X261618761Y-135507000D01*
X261571142Y-135554619D01*
X261475904Y-135697476D01*
X261428285Y-135887952D01*
X261428285Y-136268904D01*
X261475904Y-136364142D01*
X261523523Y-136411761D01*
X261618761Y-136459380D01*
X261809238Y-136459380D01*
X261904476Y-136411761D01*
X261952095Y-136364142D01*
X261999714Y-136268904D01*
X261999714Y-136030809D01*
X261952095Y-135935571D01*
X261904476Y-135887952D01*
X261809238Y-135840333D01*
X261618761Y-135840333D01*
X261523523Y-135887952D01*
X261475904Y-135935571D01*
X261428285Y-136030809D01*
X256348380Y-118075333D02*
X257062666Y-118075333D01*
X257205523Y-118122952D01*
X257300761Y-118218190D01*
X257348380Y-118361047D01*
X257348380Y-118456285D01*
X257348380Y-117075333D02*
X257348380Y-117646761D01*
X257348380Y-117361047D02*
X256348380Y-117361047D01*
X256491238Y-117456285D01*
X256586476Y-117551523D01*
X256634095Y-117646761D01*
X217105380Y-124679333D02*
X217819666Y-124679333D01*
X217962523Y-124726952D01*
X218057761Y-124822190D01*
X218105380Y-124965047D01*
X218105380Y-125060285D01*
X217105380Y-124298380D02*
X217105380Y-123679333D01*
X217486333Y-124012666D01*
X217486333Y-123869809D01*
X217533952Y-123774571D01*
X217581571Y-123726952D01*
X217676809Y-123679333D01*
X217914904Y-123679333D01*
X218010142Y-123726952D01*
X218057761Y-123774571D01*
X218105380Y-123869809D01*
X218105380Y-124155523D01*
X218057761Y-124250761D01*
X218010142Y-124298380D01*
X237893666Y-140689380D02*
X237893666Y-141403666D01*
X237846047Y-141546523D01*
X237750809Y-141641761D01*
X237607952Y-141689380D01*
X237512714Y-141689380D01*
X238846047Y-140689380D02*
X238369857Y-140689380D01*
X238322238Y-141165571D01*
X238369857Y-141117952D01*
X238465095Y-141070333D01*
X238703190Y-141070333D01*
X238798428Y-141117952D01*
X238846047Y-141165571D01*
X238893666Y-141260809D01*
X238893666Y-141498904D01*
X238846047Y-141594142D01*
X238798428Y-141641761D01*
X238703190Y-141689380D01*
X238465095Y-141689380D01*
X238369857Y-141641761D01*
X238322238Y-141594142D01*
X256221380Y-129759333D02*
X256935666Y-129759333D01*
X257078523Y-129806952D01*
X257173761Y-129902190D01*
X257221380Y-130045047D01*
X257221380Y-130140285D01*
X256221380Y-128854571D02*
X256221380Y-129045047D01*
X256269000Y-129140285D01*
X256316619Y-129187904D01*
X256459476Y-129283142D01*
X256649952Y-129330761D01*
X257030904Y-129330761D01*
X257126142Y-129283142D01*
X257173761Y-129235523D01*
X257221380Y-129140285D01*
X257221380Y-128949809D01*
X257173761Y-128854571D01*
X257126142Y-128806952D01*
X257030904Y-128759333D01*
X256792809Y-128759333D01*
X256697571Y-128806952D01*
X256649952Y-128854571D01*
X256602333Y-128949809D01*
X256602333Y-129140285D01*
X256649952Y-129235523D01*
X256697571Y-129283142D01*
X256792809Y-129330761D01*
X256348380Y-106518333D02*
X257062666Y-106518333D01*
X257205523Y-106565952D01*
X257300761Y-106661190D01*
X257348380Y-106804047D01*
X257348380Y-106899285D01*
X256348380Y-106137380D02*
X256348380Y-105470714D01*
X257348380Y-105899285D01*
X251355666Y-140943380D02*
X251355666Y-141657666D01*
X251308047Y-141800523D01*
X251212809Y-141895761D01*
X251069952Y-141943380D01*
X250974714Y-141943380D01*
X251974714Y-141371952D02*
X251879476Y-141324333D01*
X251831857Y-141276714D01*
X251784238Y-141181476D01*
X251784238Y-141133857D01*
X251831857Y-141038619D01*
X251879476Y-140991000D01*
X251974714Y-140943380D01*
X252165190Y-140943380D01*
X252260428Y-140991000D01*
X252308047Y-141038619D01*
X252355666Y-141133857D01*
X252355666Y-141181476D01*
X252308047Y-141276714D01*
X252260428Y-141324333D01*
X252165190Y-141371952D01*
X251974714Y-141371952D01*
X251879476Y-141419571D01*
X251831857Y-141467190D01*
X251784238Y-141562428D01*
X251784238Y-141752904D01*
X251831857Y-141848142D01*
X251879476Y-141895761D01*
X251974714Y-141943380D01*
X252165190Y-141943380D01*
X252260428Y-141895761D01*
X252308047Y-141848142D01*
X252355666Y-141752904D01*
X252355666Y-141562428D01*
X252308047Y-141467190D01*
X252260428Y-141419571D01*
X252165190Y-141371952D01*
X216978380Y-109026523D02*
X217692666Y-109026523D01*
X217835523Y-109074142D01*
X217930761Y-109169380D01*
X217978380Y-109312238D01*
X217978380Y-109407476D01*
X217978380Y-108026523D02*
X217978380Y-108597952D01*
X217978380Y-108312238D02*
X216978380Y-108312238D01*
X217121238Y-108407476D01*
X217216476Y-108502714D01*
X217264095Y-108597952D01*
X216978380Y-107407476D02*
X216978380Y-107312238D01*
X217026000Y-107217000D01*
X217073619Y-107169380D01*
X217168857Y-107121761D01*
X217359333Y-107074142D01*
X217597428Y-107074142D01*
X217787904Y-107121761D01*
X217883142Y-107169380D01*
X217930761Y-107217000D01*
X217978380Y-107312238D01*
X217978380Y-107407476D01*
X217930761Y-107502714D01*
X217883142Y-107550333D01*
X217787904Y-107597952D01*
X217597428Y-107645571D01*
X217359333Y-107645571D01*
X217168857Y-107597952D01*
X217073619Y-107550333D01*
X217026000Y-107502714D01*
X216978380Y-107407476D01*
X222804380Y-116638666D02*
X222328190Y-116972000D01*
X222804380Y-117210095D02*
X221804380Y-117210095D01*
X221804380Y-116829142D01*
X221852000Y-116733904D01*
X221899619Y-116686285D01*
X221994857Y-116638666D01*
X222137714Y-116638666D01*
X222232952Y-116686285D01*
X222280571Y-116733904D01*
X222328190Y-116829142D01*
X222328190Y-117210095D01*
X222804380Y-115686285D02*
X222804380Y-116257714D01*
X222804380Y-115972000D02*
X221804380Y-115972000D01*
X221947238Y-116067238D01*
X222042476Y-116162476D01*
X222090095Y-116257714D01*
X233980380Y-106478666D02*
X233504190Y-106812000D01*
X233980380Y-107050095D02*
X232980380Y-107050095D01*
X232980380Y-106669142D01*
X233028000Y-106573904D01*
X233075619Y-106526285D01*
X233170857Y-106478666D01*
X233313714Y-106478666D01*
X233408952Y-106526285D01*
X233456571Y-106573904D01*
X233504190Y-106669142D01*
X233504190Y-107050095D01*
X233075619Y-106097714D02*
X233028000Y-106050095D01*
X232980380Y-105954857D01*
X232980380Y-105716761D01*
X233028000Y-105621523D01*
X233075619Y-105573904D01*
X233170857Y-105526285D01*
X233266095Y-105526285D01*
X233408952Y-105573904D01*
X233980380Y-106145333D01*
X233980380Y-105526285D01*
X242616380Y-128830666D02*
X242140190Y-129164000D01*
X242616380Y-129402095D02*
X241616380Y-129402095D01*
X241616380Y-129021142D01*
X241664000Y-128925904D01*
X241711619Y-128878285D01*
X241806857Y-128830666D01*
X241949714Y-128830666D01*
X242044952Y-128878285D01*
X242092571Y-128925904D01*
X242140190Y-129021142D01*
X242140190Y-129402095D01*
X241949714Y-127973523D02*
X242616380Y-127973523D01*
X241568761Y-128211619D02*
X242283047Y-128449714D01*
X242283047Y-127830666D01*
X229408380Y-106478666D02*
X228932190Y-106812000D01*
X229408380Y-107050095D02*
X228408380Y-107050095D01*
X228408380Y-106669142D01*
X228456000Y-106573904D01*
X228503619Y-106526285D01*
X228598857Y-106478666D01*
X228741714Y-106478666D01*
X228836952Y-106526285D01*
X228884571Y-106573904D01*
X228932190Y-106669142D01*
X228932190Y-107050095D01*
X228408380Y-105573904D02*
X228408380Y-106050095D01*
X228884571Y-106097714D01*
X228836952Y-106050095D01*
X228789333Y-105954857D01*
X228789333Y-105716761D01*
X228836952Y-105621523D01*
X228884571Y-105573904D01*
X228979809Y-105526285D01*
X229217904Y-105526285D01*
X229313142Y-105573904D01*
X229360761Y-105621523D01*
X229408380Y-105716761D01*
X229408380Y-105954857D01*
X229360761Y-106050095D01*
X229313142Y-106097714D01*
X238107880Y-106415166D02*
X237631690Y-106748500D01*
X238107880Y-106986595D02*
X237107880Y-106986595D01*
X237107880Y-106605642D01*
X237155500Y-106510404D01*
X237203119Y-106462785D01*
X237298357Y-106415166D01*
X237441214Y-106415166D01*
X237536452Y-106462785D01*
X237584071Y-106510404D01*
X237631690Y-106605642D01*
X237631690Y-106986595D01*
X237107880Y-105558023D02*
X237107880Y-105748500D01*
X237155500Y-105843738D01*
X237203119Y-105891357D01*
X237345976Y-105986595D01*
X237536452Y-106034214D01*
X237917404Y-106034214D01*
X238012642Y-105986595D01*
X238060261Y-105938976D01*
X238107880Y-105843738D01*
X238107880Y-105653261D01*
X238060261Y-105558023D01*
X238012642Y-105510404D01*
X237917404Y-105462785D01*
X237679309Y-105462785D01*
X237584071Y-105510404D01*
X237536452Y-105558023D01*
X237488833Y-105653261D01*
X237488833Y-105843738D01*
X237536452Y-105938976D01*
X237584071Y-105986595D01*
X237679309Y-106034214D01*
X248204380Y-128830666D02*
X247728190Y-129164000D01*
X248204380Y-129402095D02*
X247204380Y-129402095D01*
X247204380Y-129021142D01*
X247252000Y-128925904D01*
X247299619Y-128878285D01*
X247394857Y-128830666D01*
X247537714Y-128830666D01*
X247632952Y-128878285D01*
X247680571Y-128925904D01*
X247728190Y-129021142D01*
X247728190Y-129402095D01*
X247204380Y-128497333D02*
X247204380Y-127830666D01*
X248204380Y-128259238D01*
M02*
