G04 #@! TF.GenerationSoftware,KiCad,Pcbnew,(5.1.7)-1*
G04 #@! TF.CreationDate,2020-11-02T15:49:25+01:00*
G04 #@! TF.ProjectId,raspberrypi-gpio-40pin,72617370-6265-4727-9279-70692d677069,rev?*
G04 #@! TF.SameCoordinates,Original*
G04 #@! TF.FileFunction,OtherDrawing,Comment*
%FSLAX46Y46*%
G04 Gerber Fmt 4.6, Leading zero omitted, Abs format (unit mm)*
G04 Created by KiCad (PCBNEW (5.1.7)-1) date 2020-11-02 15:49:25*
%MOMM*%
%LPD*%
G01*
G04 APERTURE LIST*
%ADD10C,0.150000*%
%ADD11C,0.120000*%
%ADD12C,0.250000*%
%ADD13C,0.300000*%
G04 APERTURE END LIST*
D10*
X275532914Y-118442599D02*
X275531834Y-117966410D01*
X275055537Y-117919871D01*
X275103264Y-117967382D01*
X275151098Y-118062512D01*
X275151638Y-118300606D01*
X275104235Y-118395952D01*
X275056724Y-118443679D01*
X274961595Y-118491514D01*
X274723500Y-118492054D01*
X274628154Y-118444651D01*
X274580427Y-118397140D01*
X274532592Y-118302010D01*
X274532052Y-118063916D01*
X274579455Y-117968570D01*
X274626966Y-117920843D01*
X275534965Y-119347359D02*
X275534533Y-119156883D01*
X275486699Y-119061753D01*
X275438972Y-119014242D01*
X275295899Y-118919329D01*
X275105315Y-118872142D01*
X274724364Y-118873005D01*
X274629234Y-118920840D01*
X274581723Y-118968567D01*
X274534320Y-119063913D01*
X274534752Y-119254389D01*
X274582587Y-119349519D01*
X274630314Y-119397030D01*
X274725660Y-119444433D01*
X274963754Y-119443893D01*
X275058884Y-119396058D01*
X275106395Y-119348331D01*
X275153798Y-119252985D01*
X275153366Y-119062509D01*
X275105531Y-118967379D01*
X275057804Y-118919868D01*
X274962458Y-118872466D01*
X274583883Y-119920946D02*
X274536264Y-119921054D01*
X274440918Y-119873651D01*
X274393191Y-119826140D01*
X275537665Y-120537832D02*
X275537881Y-120633070D01*
X275490478Y-120728416D01*
X275442967Y-120776143D01*
X275347837Y-120823978D01*
X275157469Y-120872028D01*
X274919375Y-120872568D01*
X274728791Y-120825381D01*
X274633445Y-120777978D01*
X274585718Y-120730467D01*
X274537883Y-120635338D01*
X274537667Y-120540100D01*
X274585070Y-120444754D01*
X274632581Y-120397027D01*
X274727711Y-120349192D01*
X274918079Y-120301141D01*
X275156173Y-120300601D01*
X275346757Y-120347788D01*
X275442103Y-120395191D01*
X275489830Y-120442702D01*
X275537665Y-120537832D01*
X275539824Y-121490211D02*
X275540040Y-121585448D01*
X275492637Y-121680794D01*
X275445126Y-121728521D01*
X275349997Y-121776356D01*
X275159629Y-121824407D01*
X274921534Y-121824947D01*
X274730951Y-121777760D01*
X274635605Y-121730357D01*
X274587878Y-121682846D01*
X274540043Y-121587716D01*
X274539827Y-121492478D01*
X274587230Y-121397132D01*
X274634741Y-121349405D01*
X274729871Y-121301571D01*
X274920238Y-121253520D01*
X275158333Y-121252980D01*
X275348917Y-121300167D01*
X275444263Y-121347570D01*
X275491990Y-121395081D01*
X275539824Y-121490211D01*
X275541336Y-122156876D02*
X275542848Y-122823541D01*
X274541879Y-122397238D01*
X274545442Y-123968662D02*
X275212107Y-123967151D01*
X275116869Y-123967367D02*
X275164596Y-124014878D01*
X275212431Y-124110007D01*
X275212755Y-124252864D01*
X275165352Y-124348210D01*
X275070222Y-124396045D01*
X274546414Y-124397233D01*
X275070222Y-124396045D02*
X275165568Y-124443448D01*
X275213403Y-124538578D01*
X275213727Y-124681434D01*
X275166324Y-124776780D01*
X275071194Y-124824615D01*
X274547386Y-124825803D01*
X274548465Y-125301992D02*
X275215130Y-125300481D01*
X275119892Y-125300696D02*
X275167619Y-125348207D01*
X275215454Y-125443337D01*
X275215778Y-125586194D01*
X275168375Y-125681540D01*
X275073245Y-125729375D01*
X274549437Y-125730563D01*
X275073245Y-125729375D02*
X275168591Y-125776778D01*
X275216426Y-125871908D01*
X275216750Y-126014764D01*
X275169347Y-126110110D01*
X275074217Y-126157945D01*
X274550409Y-126159133D01*
D11*
X276200000Y-94056500D02*
X276327000Y-150063500D01*
X276200000Y-94056500D02*
X275613581Y-94057830D01*
X276327000Y-150063500D02*
X275740581Y-150064830D01*
X276327000Y-150063500D02*
X275738026Y-148938329D01*
X276327000Y-150063500D02*
X276910865Y-148935669D01*
X276200000Y-94056500D02*
X275616135Y-95184331D01*
X276200000Y-94056500D02*
X276788974Y-95181671D01*
D10*
X228879415Y-77725617D02*
X228688939Y-77725432D01*
X228593654Y-77772958D01*
X228545989Y-77820530D01*
X228450611Y-77963294D01*
X228402806Y-78153724D01*
X228402435Y-78534676D01*
X228449961Y-78629961D01*
X228497533Y-78677626D01*
X228592725Y-78725338D01*
X228783201Y-78725524D01*
X228878486Y-78677998D01*
X228926151Y-78630425D01*
X228973863Y-78535234D01*
X228974095Y-78297139D01*
X228926569Y-78201854D01*
X228878997Y-78154189D01*
X228783805Y-78106477D01*
X228593329Y-78106291D01*
X228498045Y-78153817D01*
X228450379Y-78201390D01*
X228402667Y-78296581D01*
X229879414Y-77726593D02*
X229403224Y-77726129D01*
X229355141Y-78202272D01*
X229402806Y-78154700D01*
X229498091Y-78107174D01*
X229736186Y-78107406D01*
X229831377Y-78155118D01*
X229878950Y-78202783D01*
X229926476Y-78298068D01*
X229926244Y-78536163D01*
X229878532Y-78631355D01*
X229830866Y-78678927D01*
X229735582Y-78726453D01*
X229497487Y-78726221D01*
X229402295Y-78678509D01*
X229354722Y-78630844D01*
X230402294Y-78679485D02*
X230402248Y-78727104D01*
X230354536Y-78822295D01*
X230306871Y-78869868D01*
X231022271Y-77727708D02*
X231117509Y-77727801D01*
X231212701Y-77775513D01*
X231260273Y-77823178D01*
X231307799Y-77918463D01*
X231355232Y-78108985D01*
X231355000Y-78347081D01*
X231307195Y-78537510D01*
X231259483Y-78632702D01*
X231211818Y-78680274D01*
X231116533Y-78727801D01*
X231021295Y-78727708D01*
X230926104Y-78679996D01*
X230878531Y-78632330D01*
X230831005Y-78537046D01*
X230783572Y-78346523D01*
X230783804Y-78108428D01*
X230831609Y-77917998D01*
X230879321Y-77822807D01*
X230926986Y-77775234D01*
X231022271Y-77727708D01*
X231926614Y-78157162D02*
X231831423Y-78109450D01*
X231783850Y-78061785D01*
X231736324Y-77966500D01*
X231736371Y-77918881D01*
X231784082Y-77823689D01*
X231831748Y-77776117D01*
X231927032Y-77728591D01*
X232117509Y-77728777D01*
X232212700Y-77776489D01*
X232260273Y-77824154D01*
X232307799Y-77919439D01*
X232307752Y-77967058D01*
X232260040Y-78062249D01*
X232212375Y-78109822D01*
X232117090Y-78157348D01*
X231926614Y-78157162D01*
X231831330Y-78204688D01*
X231783664Y-78252261D01*
X231735952Y-78347452D01*
X231735767Y-78537928D01*
X231783293Y-78633213D01*
X231830865Y-78680878D01*
X231926057Y-78728590D01*
X232116533Y-78728776D01*
X232211817Y-78681250D01*
X232259483Y-78633677D01*
X232307195Y-78538486D01*
X232307381Y-78348010D01*
X232259855Y-78252725D01*
X232212282Y-78205060D01*
X232117090Y-78157348D01*
X232878995Y-78158091D02*
X232783803Y-78110379D01*
X232736231Y-78062714D01*
X232688705Y-77967429D01*
X232688751Y-77919810D01*
X232736463Y-77824619D01*
X232784128Y-77777046D01*
X232879413Y-77729520D01*
X233069889Y-77729706D01*
X233165081Y-77777418D01*
X233212653Y-77825083D01*
X233260179Y-77920368D01*
X233260133Y-77967987D01*
X233212421Y-78063178D01*
X233164755Y-78110751D01*
X233069471Y-78158277D01*
X232878995Y-78158091D01*
X232783710Y-78205617D01*
X232736045Y-78253190D01*
X232688333Y-78348381D01*
X232688147Y-78538858D01*
X232735673Y-78634142D01*
X232783246Y-78681808D01*
X232878437Y-78729519D01*
X233068913Y-78729705D01*
X233164198Y-78682179D01*
X233211863Y-78634607D01*
X233259575Y-78539415D01*
X233259761Y-78348939D01*
X233212235Y-78253654D01*
X233164663Y-78205989D01*
X233069471Y-78158277D01*
X234449865Y-78731053D02*
X234450516Y-78064386D01*
X234450423Y-78159624D02*
X234498088Y-78112052D01*
X234593373Y-78064526D01*
X234736230Y-78064665D01*
X234831421Y-78112377D01*
X234878947Y-78207661D01*
X234878436Y-78731471D01*
X234878947Y-78207661D02*
X234926659Y-78112470D01*
X235021944Y-78064944D01*
X235164801Y-78065083D01*
X235259993Y-78112795D01*
X235307519Y-78208080D01*
X235307008Y-78731889D01*
X235783198Y-78732353D02*
X235783848Y-78065687D01*
X235783755Y-78160925D02*
X235831421Y-78113352D01*
X235926705Y-78065826D01*
X236069562Y-78065966D01*
X236164754Y-78113678D01*
X236212280Y-78208962D01*
X236211769Y-78732771D01*
X236212280Y-78208962D02*
X236259992Y-78113771D01*
X236355277Y-78066244D01*
X236498134Y-78066384D01*
X236593325Y-78114096D01*
X236640851Y-78209380D01*
X236640340Y-78733190D01*
D11*
X200000557Y-79515063D02*
X265088057Y-79578563D01*
X200000000Y-80086500D02*
X200001130Y-78928643D01*
X265087500Y-80150000D02*
X265088630Y-78992143D01*
X265088057Y-79578563D02*
X263960982Y-80163884D01*
X265088057Y-79578563D02*
X263962126Y-78991044D01*
X200000557Y-79515063D02*
X201126488Y-80102582D01*
X200000557Y-79515063D02*
X201127632Y-78929742D01*
D12*
X329843571Y-280246428D02*
X330605476Y-280246428D01*
X331081666Y-280246428D02*
X331843571Y-280246428D01*
X332319761Y-280246428D02*
X333081666Y-280246428D01*
X333557857Y-280246428D02*
X334319761Y-280246428D01*
X334795952Y-280246428D02*
X335557857Y-280246428D01*
X336034047Y-280246428D02*
X336795952Y-280246428D01*
X337272142Y-280246428D02*
X338034047Y-280246428D01*
X338510238Y-280246428D02*
X339272142Y-280246428D01*
X339748333Y-280246428D02*
X340510238Y-280246428D01*
X340986428Y-280246428D02*
X341748333Y-280246428D01*
X342224523Y-280246428D02*
X342986428Y-280246428D01*
X343462619Y-280246428D02*
X344224523Y-280246428D01*
X344700714Y-280246428D02*
X345462619Y-280246428D01*
X345938809Y-280246428D02*
X346700714Y-280246428D01*
X347176904Y-280246428D02*
X347938809Y-280246428D01*
X348415000Y-280246428D02*
X349176904Y-280246428D01*
X349653095Y-280246428D02*
X350415000Y-280246428D01*
X350891190Y-280246428D02*
X351653095Y-280246428D01*
X353081666Y-279627380D02*
X353176904Y-279627380D01*
X353272142Y-279675000D01*
X353319761Y-279722619D01*
X353367380Y-279817857D01*
X353415000Y-280008333D01*
X353415000Y-280246428D01*
X353367380Y-280436904D01*
X353319761Y-280532142D01*
X353272142Y-280579761D01*
X353176904Y-280627380D01*
X353081666Y-280627380D01*
X352986428Y-280579761D01*
X352938809Y-280532142D01*
X352891190Y-280436904D01*
X352843571Y-280246428D01*
X352843571Y-280008333D01*
X352891190Y-279817857D01*
X352938809Y-279722619D01*
X352986428Y-279675000D01*
X353081666Y-279627380D01*
X353795952Y-279722619D02*
X353843571Y-279675000D01*
X353938809Y-279627380D01*
X354176904Y-279627380D01*
X354272142Y-279675000D01*
X354319761Y-279722619D01*
X354367380Y-279817857D01*
X354367380Y-279913095D01*
X354319761Y-280055952D01*
X353748333Y-280627380D01*
X354367380Y-280627380D01*
X354795952Y-280532142D02*
X354843571Y-280579761D01*
X354795952Y-280627380D01*
X354748333Y-280579761D01*
X354795952Y-280532142D01*
X354795952Y-280627380D01*
X355795952Y-280627380D02*
X355224523Y-280627380D01*
X355510238Y-280627380D02*
X355510238Y-279627380D01*
X355415000Y-279770238D01*
X355319761Y-279865476D01*
X355224523Y-279913095D01*
X356748333Y-280627380D02*
X356176904Y-280627380D01*
X356462619Y-280627380D02*
X356462619Y-279627380D01*
X356367380Y-279770238D01*
X356272142Y-279865476D01*
X356176904Y-279913095D01*
X357176904Y-280532142D02*
X357224523Y-280579761D01*
X357176904Y-280627380D01*
X357129285Y-280579761D01*
X357176904Y-280532142D01*
X357176904Y-280627380D01*
X357605476Y-279722619D02*
X357653095Y-279675000D01*
X357748333Y-279627380D01*
X357986428Y-279627380D01*
X358081666Y-279675000D01*
X358129285Y-279722619D01*
X358176904Y-279817857D01*
X358176904Y-279913095D01*
X358129285Y-280055952D01*
X357557857Y-280627380D01*
X358176904Y-280627380D01*
X358795952Y-279627380D02*
X358891190Y-279627380D01*
X358986428Y-279675000D01*
X359034047Y-279722619D01*
X359081666Y-279817857D01*
X359129285Y-280008333D01*
X359129285Y-280246428D01*
X359081666Y-280436904D01*
X359034047Y-280532142D01*
X358986428Y-280579761D01*
X358891190Y-280627380D01*
X358795952Y-280627380D01*
X358700714Y-280579761D01*
X358653095Y-280532142D01*
X358605476Y-280436904D01*
X358557857Y-280246428D01*
X358557857Y-280008333D01*
X358605476Y-279817857D01*
X358653095Y-279722619D01*
X358700714Y-279675000D01*
X358795952Y-279627380D01*
X359510238Y-279722619D02*
X359557857Y-279675000D01*
X359653095Y-279627380D01*
X359891190Y-279627380D01*
X359986428Y-279675000D01*
X360034047Y-279722619D01*
X360081666Y-279817857D01*
X360081666Y-279913095D01*
X360034047Y-280055952D01*
X359462619Y-280627380D01*
X360081666Y-280627380D01*
X360700714Y-279627380D02*
X360795952Y-279627380D01*
X360891190Y-279675000D01*
X360938809Y-279722619D01*
X360986428Y-279817857D01*
X361034047Y-280008333D01*
X361034047Y-280246428D01*
X360986428Y-280436904D01*
X360938809Y-280532142D01*
X360891190Y-280579761D01*
X360795952Y-280627380D01*
X360700714Y-280627380D01*
X360605476Y-280579761D01*
X360557857Y-280532142D01*
X360510238Y-280436904D01*
X360462619Y-280246428D01*
X360462619Y-280008333D01*
X360510238Y-279817857D01*
X360557857Y-279722619D01*
X360605476Y-279675000D01*
X360700714Y-279627380D01*
X394516428Y-280754380D02*
X393945000Y-280754380D01*
X394230714Y-280754380D02*
X394230714Y-279754380D01*
X394135476Y-279897238D01*
X394040238Y-279992476D01*
X393945000Y-280040095D01*
X394945000Y-280659142D02*
X394992619Y-280706761D01*
X394945000Y-280754380D01*
X394897380Y-280706761D01*
X394945000Y-280659142D01*
X394945000Y-280754380D01*
X395945000Y-280754380D02*
X395373571Y-280754380D01*
X395659285Y-280754380D02*
X395659285Y-279754380D01*
X395564047Y-279897238D01*
X395468809Y-279992476D01*
X395373571Y-280040095D01*
X392064619Y-276785666D02*
X392540809Y-276785666D01*
X391969380Y-277071380D02*
X392302714Y-276071380D01*
X392636047Y-277071380D01*
X393112238Y-277071380D02*
X393017000Y-277023761D01*
X392969380Y-276928523D01*
X392969380Y-276071380D01*
X393493190Y-277071380D02*
X393493190Y-276071380D01*
X393493190Y-276452333D02*
X393588428Y-276404714D01*
X393778904Y-276404714D01*
X393874142Y-276452333D01*
X393921761Y-276499952D01*
X393969380Y-276595190D01*
X393969380Y-276880904D01*
X393921761Y-276976142D01*
X393874142Y-277023761D01*
X393778904Y-277071380D01*
X393588428Y-277071380D01*
X393493190Y-277023761D01*
X394778904Y-277023761D02*
X394683666Y-277071380D01*
X394493190Y-277071380D01*
X394397952Y-277023761D01*
X394350333Y-276928523D01*
X394350333Y-276547571D01*
X394397952Y-276452333D01*
X394493190Y-276404714D01*
X394683666Y-276404714D01*
X394778904Y-276452333D01*
X394826523Y-276547571D01*
X394826523Y-276642809D01*
X394350333Y-276738047D01*
X395255095Y-277071380D02*
X395255095Y-276404714D01*
X395255095Y-276595190D02*
X395302714Y-276499952D01*
X395350333Y-276452333D01*
X395445571Y-276404714D01*
X395540809Y-276404714D01*
X395731285Y-276404714D02*
X396112238Y-276404714D01*
X395874142Y-276071380D02*
X395874142Y-276928523D01*
X395921761Y-277023761D01*
X396017000Y-277071380D01*
X396112238Y-277071380D01*
X396588428Y-277071380D02*
X396493190Y-277023761D01*
X396445571Y-276976142D01*
X396397952Y-276880904D01*
X396397952Y-276595190D01*
X396445571Y-276499952D01*
X396493190Y-276452333D01*
X396588428Y-276404714D01*
X396731285Y-276404714D01*
X396826523Y-276452333D01*
X396874142Y-276499952D01*
X396921761Y-276595190D01*
X396921761Y-276880904D01*
X396874142Y-276976142D01*
X396826523Y-277023761D01*
X396731285Y-277071380D01*
X396588428Y-277071380D01*
X398112238Y-277071380D02*
X398112238Y-276071380D01*
X398445571Y-276785666D01*
X398778904Y-276071380D01*
X398778904Y-277071380D01*
X399255095Y-276976142D02*
X399302714Y-277023761D01*
X399255095Y-277071380D01*
X399207476Y-277023761D01*
X399255095Y-276976142D01*
X399255095Y-277071380D01*
X401064619Y-277071380D02*
X400731285Y-276595190D01*
X400493190Y-277071380D02*
X400493190Y-276071380D01*
X400874142Y-276071380D01*
X400969380Y-276119000D01*
X401017000Y-276166619D01*
X401064619Y-276261857D01*
X401064619Y-276404714D01*
X401017000Y-276499952D01*
X400969380Y-276547571D01*
X400874142Y-276595190D01*
X400493190Y-276595190D01*
X401921761Y-277071380D02*
X401921761Y-276547571D01*
X401874142Y-276452333D01*
X401778904Y-276404714D01*
X401588428Y-276404714D01*
X401493190Y-276452333D01*
X401921761Y-277023761D02*
X401826523Y-277071380D01*
X401588428Y-277071380D01*
X401493190Y-277023761D01*
X401445571Y-276928523D01*
X401445571Y-276833285D01*
X401493190Y-276738047D01*
X401588428Y-276690428D01*
X401826523Y-276690428D01*
X401921761Y-276642809D01*
X402397952Y-277071380D02*
X402397952Y-276404714D01*
X402397952Y-276499952D02*
X402445571Y-276452333D01*
X402540809Y-276404714D01*
X402683666Y-276404714D01*
X402778904Y-276452333D01*
X402826523Y-276547571D01*
X402826523Y-277071380D01*
X402826523Y-276547571D02*
X402874142Y-276452333D01*
X402969380Y-276404714D01*
X403112238Y-276404714D01*
X403207476Y-276452333D01*
X403255095Y-276547571D01*
X403255095Y-277071380D01*
X404159857Y-277071380D02*
X404159857Y-276547571D01*
X404112238Y-276452333D01*
X404017000Y-276404714D01*
X403826523Y-276404714D01*
X403731285Y-276452333D01*
X404159857Y-277023761D02*
X404064619Y-277071380D01*
X403826523Y-277071380D01*
X403731285Y-277023761D01*
X403683666Y-276928523D01*
X403683666Y-276833285D01*
X403731285Y-276738047D01*
X403826523Y-276690428D01*
X404064619Y-276690428D01*
X404159857Y-276642809D01*
X405064619Y-276404714D02*
X405064619Y-277214238D01*
X405017000Y-277309476D01*
X404969380Y-277357095D01*
X404874142Y-277404714D01*
X404731285Y-277404714D01*
X404636047Y-277357095D01*
X405064619Y-277023761D02*
X404969380Y-277071380D01*
X404778904Y-277071380D01*
X404683666Y-277023761D01*
X404636047Y-276976142D01*
X404588428Y-276880904D01*
X404588428Y-276595190D01*
X404636047Y-276499952D01*
X404683666Y-276452333D01*
X404778904Y-276404714D01*
X404969380Y-276404714D01*
X405064619Y-276452333D01*
X405540809Y-277071380D02*
X405540809Y-276404714D01*
X405540809Y-276071380D02*
X405493190Y-276119000D01*
X405540809Y-276166619D01*
X405588428Y-276119000D01*
X405540809Y-276071380D01*
X405540809Y-276166619D01*
X406017000Y-276404714D02*
X406017000Y-277071380D01*
X406017000Y-276499952D02*
X406064619Y-276452333D01*
X406159857Y-276404714D01*
X406302714Y-276404714D01*
X406397952Y-276452333D01*
X406445571Y-276547571D01*
X406445571Y-277071380D01*
X406921761Y-277071380D02*
X406921761Y-276404714D01*
X406921761Y-276071380D02*
X406874142Y-276119000D01*
X406921761Y-276166619D01*
X406969380Y-276119000D01*
X406921761Y-276071380D01*
X406921761Y-276166619D01*
X310285095Y-276944380D02*
X310285095Y-275944380D01*
X310666047Y-275944380D01*
X310761285Y-275992000D01*
X310808904Y-276039619D01*
X310856523Y-276134857D01*
X310856523Y-276277714D01*
X310808904Y-276372952D01*
X310761285Y-276420571D01*
X310666047Y-276468190D01*
X310285095Y-276468190D01*
X311856523Y-276849142D02*
X311808904Y-276896761D01*
X311666047Y-276944380D01*
X311570809Y-276944380D01*
X311427952Y-276896761D01*
X311332714Y-276801523D01*
X311285095Y-276706285D01*
X311237476Y-276515809D01*
X311237476Y-276372952D01*
X311285095Y-276182476D01*
X311332714Y-276087238D01*
X311427952Y-275992000D01*
X311570809Y-275944380D01*
X311666047Y-275944380D01*
X311808904Y-275992000D01*
X311856523Y-276039619D01*
X312618428Y-276420571D02*
X312761285Y-276468190D01*
X312808904Y-276515809D01*
X312856523Y-276611047D01*
X312856523Y-276753904D01*
X312808904Y-276849142D01*
X312761285Y-276896761D01*
X312666047Y-276944380D01*
X312285095Y-276944380D01*
X312285095Y-275944380D01*
X312618428Y-275944380D01*
X312713666Y-275992000D01*
X312761285Y-276039619D01*
X312808904Y-276134857D01*
X312808904Y-276230095D01*
X312761285Y-276325333D01*
X312713666Y-276372952D01*
X312618428Y-276420571D01*
X312285095Y-276420571D01*
X314047000Y-276277714D02*
X314047000Y-277277714D01*
X314047000Y-276325333D02*
X314142238Y-276277714D01*
X314332714Y-276277714D01*
X314427952Y-276325333D01*
X314475571Y-276372952D01*
X314523190Y-276468190D01*
X314523190Y-276753904D01*
X314475571Y-276849142D01*
X314427952Y-276896761D01*
X314332714Y-276944380D01*
X314142238Y-276944380D01*
X314047000Y-276896761D01*
X315332714Y-276896761D02*
X315237476Y-276944380D01*
X315047000Y-276944380D01*
X314951761Y-276896761D01*
X314904142Y-276801523D01*
X314904142Y-276420571D01*
X314951761Y-276325333D01*
X315047000Y-276277714D01*
X315237476Y-276277714D01*
X315332714Y-276325333D01*
X315380333Y-276420571D01*
X315380333Y-276515809D01*
X314904142Y-276611047D01*
X315808904Y-276944380D02*
X315808904Y-276277714D01*
X315808904Y-276468190D02*
X315856523Y-276372952D01*
X315904142Y-276325333D01*
X315999380Y-276277714D01*
X316094619Y-276277714D01*
X317761285Y-276944380D02*
X317427952Y-276468190D01*
X317189857Y-276944380D02*
X317189857Y-275944380D01*
X317570809Y-275944380D01*
X317666047Y-275992000D01*
X317713666Y-276039619D01*
X317761285Y-276134857D01*
X317761285Y-276277714D01*
X317713666Y-276372952D01*
X317666047Y-276420571D01*
X317570809Y-276468190D01*
X317189857Y-276468190D01*
X318618428Y-276944380D02*
X318618428Y-276420571D01*
X318570809Y-276325333D01*
X318475571Y-276277714D01*
X318285095Y-276277714D01*
X318189857Y-276325333D01*
X318618428Y-276896761D02*
X318523190Y-276944380D01*
X318285095Y-276944380D01*
X318189857Y-276896761D01*
X318142238Y-276801523D01*
X318142238Y-276706285D01*
X318189857Y-276611047D01*
X318285095Y-276563428D01*
X318523190Y-276563428D01*
X318618428Y-276515809D01*
X319047000Y-276896761D02*
X319142238Y-276944380D01*
X319332714Y-276944380D01*
X319427952Y-276896761D01*
X319475571Y-276801523D01*
X319475571Y-276753904D01*
X319427952Y-276658666D01*
X319332714Y-276611047D01*
X319189857Y-276611047D01*
X319094619Y-276563428D01*
X319047000Y-276468190D01*
X319047000Y-276420571D01*
X319094619Y-276325333D01*
X319189857Y-276277714D01*
X319332714Y-276277714D01*
X319427952Y-276325333D01*
X319904142Y-276277714D02*
X319904142Y-277277714D01*
X319904142Y-276325333D02*
X319999380Y-276277714D01*
X320189857Y-276277714D01*
X320285095Y-276325333D01*
X320332714Y-276372952D01*
X320380333Y-276468190D01*
X320380333Y-276753904D01*
X320332714Y-276849142D01*
X320285095Y-276896761D01*
X320189857Y-276944380D01*
X319999380Y-276944380D01*
X319904142Y-276896761D01*
X320808904Y-276944380D02*
X320808904Y-275944380D01*
X320808904Y-276325333D02*
X320904142Y-276277714D01*
X321094619Y-276277714D01*
X321189857Y-276325333D01*
X321237476Y-276372952D01*
X321285095Y-276468190D01*
X321285095Y-276753904D01*
X321237476Y-276849142D01*
X321189857Y-276896761D01*
X321094619Y-276944380D01*
X320904142Y-276944380D01*
X320808904Y-276896761D01*
X322094619Y-276896761D02*
X321999380Y-276944380D01*
X321808904Y-276944380D01*
X321713666Y-276896761D01*
X321666047Y-276801523D01*
X321666047Y-276420571D01*
X321713666Y-276325333D01*
X321808904Y-276277714D01*
X321999380Y-276277714D01*
X322094619Y-276325333D01*
X322142238Y-276420571D01*
X322142238Y-276515809D01*
X321666047Y-276611047D01*
X322570809Y-276944380D02*
X322570809Y-276277714D01*
X322570809Y-276468190D02*
X322618428Y-276372952D01*
X322666047Y-276325333D01*
X322761285Y-276277714D01*
X322856523Y-276277714D01*
X323189857Y-276944380D02*
X323189857Y-276277714D01*
X323189857Y-276468190D02*
X323237476Y-276372952D01*
X323285095Y-276325333D01*
X323380333Y-276277714D01*
X323475571Y-276277714D01*
X323666047Y-276277714D02*
X324047000Y-276277714D01*
X323808904Y-275944380D02*
X323808904Y-276801523D01*
X323856523Y-276896761D01*
X323951761Y-276944380D01*
X324047000Y-276944380D01*
X324285095Y-276277714D02*
X324523190Y-276944380D01*
X324761285Y-276277714D02*
X324523190Y-276944380D01*
X324427952Y-277182476D01*
X324380333Y-277230095D01*
X324285095Y-277277714D01*
X325904142Y-276944380D02*
X325904142Y-275944380D01*
X326285095Y-275944380D01*
X326380333Y-275992000D01*
X326427952Y-276039619D01*
X326475571Y-276134857D01*
X326475571Y-276277714D01*
X326427952Y-276372952D01*
X326380333Y-276420571D01*
X326285095Y-276468190D01*
X325904142Y-276468190D01*
X326904142Y-276944380D02*
X326904142Y-276277714D01*
X326904142Y-275944380D02*
X326856523Y-275992000D01*
X326904142Y-276039619D01*
X326951761Y-275992000D01*
X326904142Y-275944380D01*
X326904142Y-276039619D01*
X328856523Y-275896761D02*
X327999380Y-277182476D01*
X329904142Y-275896761D02*
X329047000Y-277182476D01*
X330999380Y-276944380D02*
X330999380Y-275944380D01*
X330999380Y-276420571D02*
X331570809Y-276420571D01*
X331570809Y-276944380D02*
X331570809Y-275944380D01*
X332475571Y-276944380D02*
X332475571Y-276420571D01*
X332427952Y-276325333D01*
X332332714Y-276277714D01*
X332142238Y-276277714D01*
X332047000Y-276325333D01*
X332475571Y-276896761D02*
X332380333Y-276944380D01*
X332142238Y-276944380D01*
X332047000Y-276896761D01*
X331999380Y-276801523D01*
X331999380Y-276706285D01*
X332047000Y-276611047D01*
X332142238Y-276563428D01*
X332380333Y-276563428D01*
X332475571Y-276515809D01*
X332808904Y-276277714D02*
X333189857Y-276277714D01*
X332951761Y-275944380D02*
X332951761Y-276801523D01*
X332999380Y-276896761D01*
X333094619Y-276944380D01*
X333189857Y-276944380D01*
D13*
X304109761Y-260344857D02*
X303432428Y-260344857D01*
X303432428Y-261409238D02*
X303432428Y-259377238D01*
X304400047Y-259377238D01*
X305174142Y-260344857D02*
X305851476Y-260344857D01*
X306141761Y-261409238D02*
X305174142Y-261409238D01*
X305174142Y-259377238D01*
X306141761Y-259377238D01*
X307980238Y-261409238D02*
X307012619Y-261409238D01*
X307012619Y-259377238D01*
X309625190Y-261409238D02*
X308657571Y-261409238D01*
X308657571Y-259377238D01*
X310689571Y-259377238D02*
X311076619Y-259377238D01*
X311270142Y-259474000D01*
X311463666Y-259667523D01*
X311560428Y-260054571D01*
X311560428Y-260731904D01*
X311463666Y-261118952D01*
X311270142Y-261312476D01*
X311076619Y-261409238D01*
X310689571Y-261409238D01*
X310496047Y-261312476D01*
X310302523Y-261118952D01*
X310205761Y-260731904D01*
X310205761Y-260054571D01*
X310302523Y-259667523D01*
X310496047Y-259474000D01*
X310689571Y-259377238D01*
X312237761Y-259377238D02*
X312721571Y-261409238D01*
X313108619Y-259957809D01*
X313495666Y-261409238D01*
X313979476Y-259377238D01*
X316979095Y-260344857D02*
X317269380Y-260441619D01*
X317366142Y-260538380D01*
X317462904Y-260731904D01*
X317462904Y-261022190D01*
X317366142Y-261215714D01*
X317269380Y-261312476D01*
X317075857Y-261409238D01*
X316301761Y-261409238D01*
X316301761Y-259377238D01*
X316979095Y-259377238D01*
X317172619Y-259474000D01*
X317269380Y-259570761D01*
X317366142Y-259764285D01*
X317366142Y-259957809D01*
X317269380Y-260151333D01*
X317172619Y-260248095D01*
X316979095Y-260344857D01*
X316301761Y-260344857D01*
X319494904Y-261409238D02*
X318817571Y-260441619D01*
X318333761Y-261409238D02*
X318333761Y-259377238D01*
X319107857Y-259377238D01*
X319301380Y-259474000D01*
X319398142Y-259570761D01*
X319494904Y-259764285D01*
X319494904Y-260054571D01*
X319398142Y-260248095D01*
X319301380Y-260344857D01*
X319107857Y-260441619D01*
X318333761Y-260441619D01*
X320365761Y-260344857D02*
X321043095Y-260344857D01*
X321333380Y-261409238D02*
X320365761Y-261409238D01*
X320365761Y-259377238D01*
X321333380Y-259377238D01*
X322010714Y-259377238D02*
X322494523Y-261409238D01*
X322881571Y-259957809D01*
X323268619Y-261409238D01*
X323752428Y-259377238D01*
X324526523Y-260344857D02*
X325203857Y-260344857D01*
X325494142Y-261409238D02*
X324526523Y-261409238D01*
X324526523Y-259377238D01*
X325494142Y-259377238D01*
X327526142Y-261409238D02*
X326848809Y-260441619D01*
X326365000Y-261409238D02*
X326365000Y-259377238D01*
X327139095Y-259377238D01*
X327332619Y-259474000D01*
X327429380Y-259570761D01*
X327526142Y-259764285D01*
X327526142Y-260054571D01*
X327429380Y-260248095D01*
X327332619Y-260344857D01*
X327139095Y-260441619D01*
X326365000Y-260441619D01*
X329945190Y-261409238D02*
X329945190Y-259377238D01*
X330719285Y-259377238D01*
X330912809Y-259474000D01*
X331009571Y-259570761D01*
X331106333Y-259764285D01*
X331106333Y-260054571D01*
X331009571Y-260248095D01*
X330912809Y-260344857D01*
X330719285Y-260441619D01*
X329945190Y-260441619D01*
X333138333Y-261215714D02*
X333041571Y-261312476D01*
X332751285Y-261409238D01*
X332557761Y-261409238D01*
X332267476Y-261312476D01*
X332073952Y-261118952D01*
X331977190Y-260925428D01*
X331880428Y-260538380D01*
X331880428Y-260248095D01*
X331977190Y-259861047D01*
X332073952Y-259667523D01*
X332267476Y-259474000D01*
X332557761Y-259377238D01*
X332751285Y-259377238D01*
X333041571Y-259474000D01*
X333138333Y-259570761D01*
X334686523Y-260344857D02*
X334976809Y-260441619D01*
X335073571Y-260538380D01*
X335170333Y-260731904D01*
X335170333Y-261022190D01*
X335073571Y-261215714D01*
X334976809Y-261312476D01*
X334783285Y-261409238D01*
X334009190Y-261409238D01*
X334009190Y-259377238D01*
X334686523Y-259377238D01*
X334880047Y-259474000D01*
X334976809Y-259570761D01*
X335073571Y-259764285D01*
X335073571Y-259957809D01*
X334976809Y-260151333D01*
X334880047Y-260248095D01*
X334686523Y-260344857D01*
X334009190Y-260344857D01*
D10*
X195467619Y-118734595D02*
X195467619Y-118829833D01*
X195420000Y-118925071D01*
X195372380Y-118972690D01*
X195277142Y-119020309D01*
X195086666Y-119067928D01*
X194848571Y-119067928D01*
X194658095Y-119020309D01*
X194562857Y-118972690D01*
X194515238Y-118925071D01*
X194467619Y-118829833D01*
X194467619Y-118734595D01*
X194515238Y-118639357D01*
X194562857Y-118591738D01*
X194658095Y-118544119D01*
X194848571Y-118496500D01*
X195086666Y-118496500D01*
X195277142Y-118544119D01*
X195372380Y-118591738D01*
X195420000Y-118639357D01*
X195467619Y-118734595D01*
X194515238Y-119544119D02*
X194467619Y-119544119D01*
X194372380Y-119496500D01*
X194324761Y-119448880D01*
X195467619Y-120401261D02*
X195467619Y-120210785D01*
X195420000Y-120115547D01*
X195372380Y-120067928D01*
X195229523Y-119972690D01*
X195039047Y-119925071D01*
X194658095Y-119925071D01*
X194562857Y-119972690D01*
X194515238Y-120020309D01*
X194467619Y-120115547D01*
X194467619Y-120306023D01*
X194515238Y-120401261D01*
X194562857Y-120448880D01*
X194658095Y-120496500D01*
X194896190Y-120496500D01*
X194991428Y-120448880D01*
X195039047Y-120401261D01*
X195086666Y-120306023D01*
X195086666Y-120115547D01*
X195039047Y-120020309D01*
X194991428Y-119972690D01*
X194896190Y-119925071D01*
X195467619Y-121353642D02*
X195467619Y-121163166D01*
X195420000Y-121067928D01*
X195372380Y-121020309D01*
X195229523Y-120925071D01*
X195039047Y-120877452D01*
X194658095Y-120877452D01*
X194562857Y-120925071D01*
X194515238Y-120972690D01*
X194467619Y-121067928D01*
X194467619Y-121258404D01*
X194515238Y-121353642D01*
X194562857Y-121401261D01*
X194658095Y-121448880D01*
X194896190Y-121448880D01*
X194991428Y-121401261D01*
X195039047Y-121353642D01*
X195086666Y-121258404D01*
X195086666Y-121067928D01*
X195039047Y-120972690D01*
X194991428Y-120925071D01*
X194896190Y-120877452D01*
X195467619Y-122353642D02*
X195467619Y-121877452D01*
X194991428Y-121829833D01*
X195039047Y-121877452D01*
X195086666Y-121972690D01*
X195086666Y-122210785D01*
X195039047Y-122306023D01*
X194991428Y-122353642D01*
X194896190Y-122401261D01*
X194658095Y-122401261D01*
X194562857Y-122353642D01*
X194515238Y-122306023D01*
X194467619Y-122210785D01*
X194467619Y-121972690D01*
X194515238Y-121877452D01*
X194562857Y-121829833D01*
X195467619Y-123020309D02*
X195467619Y-123115547D01*
X195420000Y-123210785D01*
X195372380Y-123258404D01*
X195277142Y-123306023D01*
X195086666Y-123353642D01*
X194848571Y-123353642D01*
X194658095Y-123306023D01*
X194562857Y-123258404D01*
X194515238Y-123210785D01*
X194467619Y-123115547D01*
X194467619Y-123020309D01*
X194515238Y-122925071D01*
X194562857Y-122877452D01*
X194658095Y-122829833D01*
X194848571Y-122782214D01*
X195086666Y-122782214D01*
X195277142Y-122829833D01*
X195372380Y-122877452D01*
X195420000Y-122925071D01*
X195467619Y-123020309D01*
X194467619Y-124544119D02*
X195134285Y-124544119D01*
X195467619Y-124544119D02*
X195420000Y-124496500D01*
X195372380Y-124544119D01*
X195420000Y-124591738D01*
X195467619Y-124544119D01*
X195372380Y-124544119D01*
X195134285Y-125020309D02*
X194467619Y-125020309D01*
X195039047Y-125020309D02*
X195086666Y-125067928D01*
X195134285Y-125163166D01*
X195134285Y-125306023D01*
X195086666Y-125401261D01*
X194991428Y-125448880D01*
X194467619Y-125448880D01*
D11*
X196190000Y-113551000D02*
X196190000Y-130442000D01*
X197460000Y-113551000D02*
X195603579Y-113551000D01*
X197460000Y-130442000D02*
X195603579Y-130442000D01*
X196190000Y-130442000D02*
X195603579Y-129315496D01*
X196190000Y-130442000D02*
X196776421Y-129315496D01*
X196190000Y-113551000D02*
X195603579Y-114677504D01*
X196190000Y-113551000D02*
X196776421Y-114677504D01*
D10*
X228948500Y-87317619D02*
X228996119Y-87270000D01*
X229091357Y-87222380D01*
X229329452Y-87222380D01*
X229424690Y-87270000D01*
X229472309Y-87317619D01*
X229519928Y-87412857D01*
X229519928Y-87508095D01*
X229472309Y-87650952D01*
X228900880Y-88222380D01*
X229519928Y-88222380D01*
X229996119Y-88174761D02*
X229996119Y-88222380D01*
X229948500Y-88317619D01*
X229900880Y-88365238D01*
X230900880Y-87222380D02*
X230424690Y-87222380D01*
X230377071Y-87698571D01*
X230424690Y-87650952D01*
X230519928Y-87603333D01*
X230758023Y-87603333D01*
X230853261Y-87650952D01*
X230900880Y-87698571D01*
X230948500Y-87793809D01*
X230948500Y-88031904D01*
X230900880Y-88127142D01*
X230853261Y-88174761D01*
X230758023Y-88222380D01*
X230519928Y-88222380D01*
X230424690Y-88174761D01*
X230377071Y-88127142D01*
X231853261Y-87222380D02*
X231377071Y-87222380D01*
X231329452Y-87698571D01*
X231377071Y-87650952D01*
X231472309Y-87603333D01*
X231710404Y-87603333D01*
X231805642Y-87650952D01*
X231853261Y-87698571D01*
X231900880Y-87793809D01*
X231900880Y-88031904D01*
X231853261Y-88127142D01*
X231805642Y-88174761D01*
X231710404Y-88222380D01*
X231472309Y-88222380D01*
X231377071Y-88174761D01*
X231329452Y-88127142D01*
X232805642Y-87222380D02*
X232329452Y-87222380D01*
X232281833Y-87698571D01*
X232329452Y-87650952D01*
X232424690Y-87603333D01*
X232662785Y-87603333D01*
X232758023Y-87650952D01*
X232805642Y-87698571D01*
X232853261Y-87793809D01*
X232853261Y-88031904D01*
X232805642Y-88127142D01*
X232758023Y-88174761D01*
X232662785Y-88222380D01*
X232424690Y-88222380D01*
X232329452Y-88174761D01*
X232281833Y-88127142D01*
X233472309Y-87222380D02*
X233567547Y-87222380D01*
X233662785Y-87270000D01*
X233710404Y-87317619D01*
X233758023Y-87412857D01*
X233805642Y-87603333D01*
X233805642Y-87841428D01*
X233758023Y-88031904D01*
X233710404Y-88127142D01*
X233662785Y-88174761D01*
X233567547Y-88222380D01*
X233472309Y-88222380D01*
X233377071Y-88174761D01*
X233329452Y-88127142D01*
X233281833Y-88031904D01*
X233234214Y-87841428D01*
X233234214Y-87603333D01*
X233281833Y-87412857D01*
X233329452Y-87317619D01*
X233377071Y-87270000D01*
X233472309Y-87222380D01*
X234996119Y-88222380D02*
X234996119Y-87555714D01*
X234996119Y-87222380D02*
X234948500Y-87270000D01*
X234996119Y-87317619D01*
X235043738Y-87270000D01*
X234996119Y-87222380D01*
X234996119Y-87317619D01*
X235472309Y-87555714D02*
X235472309Y-88222380D01*
X235472309Y-87650952D02*
X235519928Y-87603333D01*
X235615166Y-87555714D01*
X235758023Y-87555714D01*
X235853261Y-87603333D01*
X235900880Y-87698571D01*
X235900880Y-88222380D01*
D11*
X200000000Y-89040000D02*
X264897000Y-89040000D01*
X200000000Y-91580000D02*
X200000000Y-88453579D01*
X264897000Y-91580000D02*
X264897000Y-88453579D01*
X264897000Y-89040000D02*
X263770496Y-89626421D01*
X264897000Y-89040000D02*
X263770496Y-88453579D01*
X200000000Y-89040000D02*
X201126504Y-89626421D01*
X200000000Y-89040000D02*
X201126504Y-88453579D01*
D10*
X269328464Y-125564740D02*
X269280953Y-125517013D01*
X269233551Y-125421667D01*
X269234092Y-125183572D01*
X269281928Y-125088443D01*
X269329655Y-125040932D01*
X269425001Y-124993530D01*
X269520239Y-124993746D01*
X269662987Y-125041690D01*
X270233116Y-125614416D01*
X270234522Y-124995370D01*
X270187986Y-124519072D02*
X270235605Y-124519180D01*
X270330734Y-124567016D01*
X270378245Y-124614743D01*
X269331711Y-124136173D02*
X269284200Y-124088445D01*
X269236798Y-123993099D01*
X269237339Y-123755005D01*
X269285174Y-123659875D01*
X269332901Y-123612364D01*
X269428247Y-123564962D01*
X269523485Y-123565178D01*
X269666234Y-123613122D01*
X270236362Y-124185848D01*
X270237769Y-123566802D01*
X269239179Y-122945483D02*
X269239395Y-122850245D01*
X269287231Y-122755116D01*
X269334958Y-122707605D01*
X269430304Y-122660202D01*
X269620888Y-122613016D01*
X269858982Y-122613557D01*
X270049350Y-122661609D01*
X270144479Y-122709445D01*
X270191990Y-122757172D01*
X270239393Y-122852518D01*
X270239176Y-122947756D01*
X270191341Y-123042885D01*
X270143614Y-123090396D01*
X270048268Y-123137799D01*
X269857684Y-123184985D01*
X269619589Y-123184443D01*
X269429222Y-123136392D01*
X269334092Y-123088556D01*
X269286581Y-123040829D01*
X269239179Y-122945483D01*
X269241343Y-121993105D02*
X269241560Y-121897867D01*
X269289395Y-121802737D01*
X269337122Y-121755226D01*
X269432468Y-121707824D01*
X269623052Y-121660638D01*
X269861147Y-121661179D01*
X270051514Y-121709231D01*
X270146644Y-121757066D01*
X270194155Y-121804793D01*
X270241557Y-121900139D01*
X270241341Y-121995377D01*
X270193505Y-122090507D01*
X270145778Y-122138018D01*
X270050432Y-122185420D01*
X269859848Y-122232606D01*
X269621753Y-122232065D01*
X269431386Y-122184013D01*
X269336256Y-122136178D01*
X269288746Y-122088451D01*
X269241343Y-121993105D01*
X269243508Y-121040726D02*
X269243724Y-120945488D01*
X269291560Y-120850359D01*
X269339287Y-120802848D01*
X269434633Y-120755445D01*
X269625217Y-120708259D01*
X269863311Y-120708800D01*
X270053679Y-120756852D01*
X270148808Y-120804688D01*
X270196319Y-120852415D01*
X270243722Y-120947761D01*
X270243505Y-121042999D01*
X270195670Y-121138128D01*
X270147943Y-121185639D01*
X270052597Y-121233042D01*
X269862013Y-121280228D01*
X269623918Y-121279686D01*
X269433550Y-121231635D01*
X269338421Y-121183799D01*
X269290910Y-121136072D01*
X269243508Y-121040726D01*
X270246968Y-119519193D02*
X269580303Y-119517678D01*
X269246971Y-119516920D02*
X269294482Y-119564648D01*
X269342209Y-119517137D01*
X269294698Y-119469410D01*
X269246971Y-119516920D01*
X269342209Y-119517137D01*
X269581386Y-119041489D02*
X270248051Y-119043004D01*
X269676623Y-119041705D02*
X269629113Y-118993978D01*
X269581710Y-118898632D01*
X269582035Y-118755775D01*
X269629870Y-118660646D01*
X269725216Y-118613243D01*
X270249025Y-118614434D01*
D11*
X268455302Y-150002892D02*
X268582302Y-94122892D01*
X267183000Y-150000000D02*
X269041721Y-150004224D01*
X267310000Y-94120000D02*
X269168721Y-94124224D01*
X268582302Y-94122892D02*
X269166161Y-95250726D01*
X268582302Y-94122892D02*
X267993323Y-95248060D01*
X268455302Y-150002892D02*
X269044281Y-148877724D01*
X268455302Y-150002892D02*
X267871443Y-148875058D01*
X201454190Y-154824761D02*
X200887523Y-153872380D01*
X200482761Y-154824761D02*
X200482761Y-152824761D01*
X201130380Y-152824761D01*
X201292285Y-152920000D01*
X201373238Y-153015238D01*
X201454190Y-153205714D01*
X201454190Y-153491428D01*
X201373238Y-153681904D01*
X201292285Y-153777142D01*
X201130380Y-153872380D01*
X200482761Y-153872380D01*
X202101809Y-154253333D02*
X202911333Y-154253333D01*
X201939904Y-154824761D02*
X202506571Y-152824761D01*
X203073238Y-154824761D01*
X203558952Y-154729523D02*
X203801809Y-154824761D01*
X204206571Y-154824761D01*
X204368476Y-154729523D01*
X204449428Y-154634285D01*
X204530380Y-154443809D01*
X204530380Y-154253333D01*
X204449428Y-154062857D01*
X204368476Y-153967619D01*
X204206571Y-153872380D01*
X203882761Y-153777142D01*
X203720857Y-153681904D01*
X203639904Y-153586666D01*
X203558952Y-153396190D01*
X203558952Y-153205714D01*
X203639904Y-153015238D01*
X203720857Y-152920000D01*
X203882761Y-152824761D01*
X204287523Y-152824761D01*
X204530380Y-152920000D01*
X205258952Y-154824761D02*
X205258952Y-152824761D01*
X205906571Y-152824761D01*
X206068476Y-152920000D01*
X206149428Y-153015238D01*
X206230380Y-153205714D01*
X206230380Y-153491428D01*
X206149428Y-153681904D01*
X206068476Y-153777142D01*
X205906571Y-153872380D01*
X205258952Y-153872380D01*
X207525619Y-153777142D02*
X207768476Y-153872380D01*
X207849428Y-153967619D01*
X207930380Y-154158095D01*
X207930380Y-154443809D01*
X207849428Y-154634285D01*
X207768476Y-154729523D01*
X207606571Y-154824761D01*
X206958952Y-154824761D01*
X206958952Y-152824761D01*
X207525619Y-152824761D01*
X207687523Y-152920000D01*
X207768476Y-153015238D01*
X207849428Y-153205714D01*
X207849428Y-153396190D01*
X207768476Y-153586666D01*
X207687523Y-153681904D01*
X207525619Y-153777142D01*
X206958952Y-153777142D01*
X208658952Y-153777142D02*
X209225619Y-153777142D01*
X209468476Y-154824761D02*
X208658952Y-154824761D01*
X208658952Y-152824761D01*
X209468476Y-152824761D01*
X211168476Y-154824761D02*
X210601809Y-153872380D01*
X210197047Y-154824761D02*
X210197047Y-152824761D01*
X210844666Y-152824761D01*
X211006571Y-152920000D01*
X211087523Y-153015238D01*
X211168476Y-153205714D01*
X211168476Y-153491428D01*
X211087523Y-153681904D01*
X211006571Y-153777142D01*
X210844666Y-153872380D01*
X210197047Y-153872380D01*
X212868476Y-154824761D02*
X212301809Y-153872380D01*
X211897047Y-154824761D02*
X211897047Y-152824761D01*
X212544666Y-152824761D01*
X212706571Y-152920000D01*
X212787523Y-153015238D01*
X212868476Y-153205714D01*
X212868476Y-153491428D01*
X212787523Y-153681904D01*
X212706571Y-153777142D01*
X212544666Y-153872380D01*
X211897047Y-153872380D01*
X213920857Y-153872380D02*
X213920857Y-154824761D01*
X213354190Y-152824761D02*
X213920857Y-153872380D01*
X214487523Y-152824761D01*
X215054190Y-154062857D02*
X216349428Y-154062857D01*
X217158952Y-154824761D02*
X217158952Y-152824761D01*
X217806571Y-152824761D01*
X217968476Y-152920000D01*
X218049428Y-153015238D01*
X218130380Y-153205714D01*
X218130380Y-153491428D01*
X218049428Y-153681904D01*
X217968476Y-153777142D01*
X217806571Y-153872380D01*
X217158952Y-153872380D01*
X218858952Y-154824761D02*
X218858952Y-152824761D01*
X221692285Y-153491428D02*
X221692285Y-154824761D01*
X221287523Y-152729523D02*
X220882761Y-154158095D01*
X221935142Y-154158095D01*
X224606571Y-153491428D02*
X224606571Y-154824761D01*
X224201809Y-152729523D02*
X223797047Y-154158095D01*
X224849428Y-154158095D01*
X225820857Y-152824761D02*
X225982761Y-152824761D01*
X226144666Y-152920000D01*
X226225619Y-153015238D01*
X226306571Y-153205714D01*
X226387523Y-153586666D01*
X226387523Y-154062857D01*
X226306571Y-154443809D01*
X226225619Y-154634285D01*
X226144666Y-154729523D01*
X225982761Y-154824761D01*
X225820857Y-154824761D01*
X225658952Y-154729523D01*
X225578000Y-154634285D01*
X225497047Y-154443809D01*
X225416095Y-154062857D01*
X225416095Y-153586666D01*
X225497047Y-153205714D01*
X225578000Y-153015238D01*
X225658952Y-152920000D01*
X225820857Y-152824761D01*
X227116095Y-154062857D02*
X228411333Y-154062857D01*
X229220857Y-154824761D02*
X229220857Y-152824761D01*
X229868476Y-152824761D01*
X230030380Y-152920000D01*
X230111333Y-153015238D01*
X230192285Y-153205714D01*
X230192285Y-153491428D01*
X230111333Y-153681904D01*
X230030380Y-153777142D01*
X229868476Y-153872380D01*
X229220857Y-153872380D01*
X230920857Y-154824761D02*
X230920857Y-152824761D01*
X231730380Y-154824761D02*
X231730380Y-152824761D01*
X232701809Y-154824761D01*
X232701809Y-152824761D01*
X234806571Y-154824761D02*
X234806571Y-152824761D01*
X234806571Y-153777142D02*
X235778000Y-153777142D01*
X235778000Y-154824761D02*
X235778000Y-152824761D01*
X236506571Y-154253333D02*
X237316095Y-154253333D01*
X236344666Y-154824761D02*
X236911333Y-152824761D01*
X237478000Y-154824761D01*
X237801809Y-152824761D02*
X238773238Y-152824761D01*
X238287523Y-154824761D02*
X238287523Y-152824761D01*
X241201809Y-153777142D02*
X241444666Y-153872380D01*
X241525619Y-153967619D01*
X241606571Y-154158095D01*
X241606571Y-154443809D01*
X241525619Y-154634285D01*
X241444666Y-154729523D01*
X241282761Y-154824761D01*
X240635142Y-154824761D01*
X240635142Y-152824761D01*
X241201809Y-152824761D01*
X241363714Y-152920000D01*
X241444666Y-153015238D01*
X241525619Y-153205714D01*
X241525619Y-153396190D01*
X241444666Y-153586666D01*
X241363714Y-153681904D01*
X241201809Y-153777142D01*
X240635142Y-153777142D01*
X242658952Y-152824761D02*
X242982761Y-152824761D01*
X243144666Y-152920000D01*
X243306571Y-153110476D01*
X243387523Y-153491428D01*
X243387523Y-154158095D01*
X243306571Y-154539047D01*
X243144666Y-154729523D01*
X242982761Y-154824761D01*
X242658952Y-154824761D01*
X242497047Y-154729523D01*
X242335142Y-154539047D01*
X242254190Y-154158095D01*
X242254190Y-153491428D01*
X242335142Y-153110476D01*
X242497047Y-152920000D01*
X242658952Y-152824761D01*
X244035142Y-154253333D02*
X244844666Y-154253333D01*
X243873238Y-154824761D02*
X244439904Y-152824761D01*
X245006571Y-154824761D01*
X246544666Y-154824761D02*
X245978000Y-153872380D01*
X245573238Y-154824761D02*
X245573238Y-152824761D01*
X246220857Y-152824761D01*
X246382761Y-152920000D01*
X246463714Y-153015238D01*
X246544666Y-153205714D01*
X246544666Y-153491428D01*
X246463714Y-153681904D01*
X246382761Y-153777142D01*
X246220857Y-153872380D01*
X245573238Y-153872380D01*
X247273238Y-154824761D02*
X247273238Y-152824761D01*
X247678000Y-152824761D01*
X247920857Y-152920000D01*
X248082761Y-153110476D01*
X248163714Y-153300952D01*
X248244666Y-153681904D01*
X248244666Y-153967619D01*
X248163714Y-154348571D01*
X248082761Y-154539047D01*
X247920857Y-154729523D01*
X247678000Y-154824761D01*
X247273238Y-154824761D01*
X200239904Y-155944761D02*
X200806571Y-157944761D01*
X201373238Y-155944761D01*
X201939904Y-157944761D02*
X201939904Y-155944761D01*
X202749428Y-156897142D02*
X203316095Y-156897142D01*
X203558952Y-157944761D02*
X202749428Y-157944761D01*
X202749428Y-155944761D01*
X203558952Y-155944761D01*
X204125619Y-155944761D02*
X204530380Y-157944761D01*
X204854190Y-156516190D01*
X205178000Y-157944761D01*
X205582761Y-155944761D01*
X208092285Y-156897142D02*
X207525619Y-156897142D01*
X207525619Y-157944761D02*
X207525619Y-155944761D01*
X208335142Y-155944761D01*
X209954190Y-157944761D02*
X209387523Y-156992380D01*
X208982761Y-157944761D02*
X208982761Y-155944761D01*
X209630380Y-155944761D01*
X209792285Y-156040000D01*
X209873238Y-156135238D01*
X209954190Y-156325714D01*
X209954190Y-156611428D01*
X209873238Y-156801904D01*
X209792285Y-156897142D01*
X209630380Y-156992380D01*
X208982761Y-156992380D01*
X211006571Y-155944761D02*
X211330380Y-155944761D01*
X211492285Y-156040000D01*
X211654190Y-156230476D01*
X211735142Y-156611428D01*
X211735142Y-157278095D01*
X211654190Y-157659047D01*
X211492285Y-157849523D01*
X211330380Y-157944761D01*
X211006571Y-157944761D01*
X210844666Y-157849523D01*
X210682761Y-157659047D01*
X210601809Y-157278095D01*
X210601809Y-156611428D01*
X210682761Y-156230476D01*
X210844666Y-156040000D01*
X211006571Y-155944761D01*
X212463714Y-157944761D02*
X212463714Y-155944761D01*
X213030380Y-157373333D01*
X213597047Y-155944761D01*
X213597047Y-157944761D01*
X215458952Y-155944761D02*
X216430380Y-155944761D01*
X215944666Y-157944761D02*
X215944666Y-155944761D01*
X217320857Y-155944761D02*
X217644666Y-155944761D01*
X217806571Y-156040000D01*
X217968476Y-156230476D01*
X218049428Y-156611428D01*
X218049428Y-157278095D01*
X217968476Y-157659047D01*
X217806571Y-157849523D01*
X217644666Y-157944761D01*
X217320857Y-157944761D01*
X217158952Y-157849523D01*
X216997047Y-157659047D01*
X216916095Y-157278095D01*
X216916095Y-156611428D01*
X216997047Y-156230476D01*
X217158952Y-156040000D01*
X217320857Y-155944761D01*
X218778000Y-157944761D02*
X218778000Y-155944761D01*
X219425619Y-155944761D01*
X219587523Y-156040000D01*
X219668476Y-156135238D01*
X219749428Y-156325714D01*
X219749428Y-156611428D01*
X219668476Y-156801904D01*
X219587523Y-156897142D01*
X219425619Y-156992380D01*
X218778000Y-156992380D01*
X201049428Y-163137142D02*
X200482761Y-163137142D01*
X200482761Y-164184761D02*
X200482761Y-162184761D01*
X201292285Y-162184761D01*
X202587523Y-164089523D02*
X202425619Y-164184761D01*
X202101809Y-164184761D01*
X201939904Y-164089523D01*
X201858952Y-163899047D01*
X201858952Y-163137142D01*
X201939904Y-162946666D01*
X202101809Y-162851428D01*
X202425619Y-162851428D01*
X202587523Y-162946666D01*
X202668476Y-163137142D01*
X202668476Y-163327619D01*
X201858952Y-163518095D01*
X203639904Y-164184761D02*
X203478000Y-164089523D01*
X203397047Y-163899047D01*
X203397047Y-162184761D01*
X204530380Y-164184761D02*
X204368476Y-164089523D01*
X204287523Y-163899047D01*
X204287523Y-162184761D01*
X205420857Y-164184761D02*
X205258952Y-164089523D01*
X205178000Y-163994285D01*
X205097047Y-163803809D01*
X205097047Y-163232380D01*
X205178000Y-163041904D01*
X205258952Y-162946666D01*
X205420857Y-162851428D01*
X205663714Y-162851428D01*
X205825619Y-162946666D01*
X205906571Y-163041904D01*
X205987523Y-163232380D01*
X205987523Y-163803809D01*
X205906571Y-163994285D01*
X205825619Y-164089523D01*
X205663714Y-164184761D01*
X205420857Y-164184761D01*
X206554190Y-162851428D02*
X206878000Y-164184761D01*
X207201809Y-163232380D01*
X207525619Y-164184761D01*
X207849428Y-162851428D01*
X210358952Y-163137142D02*
X210601809Y-163232380D01*
X210682761Y-163327619D01*
X210763714Y-163518095D01*
X210763714Y-163803809D01*
X210682761Y-163994285D01*
X210601809Y-164089523D01*
X210439904Y-164184761D01*
X209792285Y-164184761D01*
X209792285Y-162184761D01*
X210358952Y-162184761D01*
X210520857Y-162280000D01*
X210601809Y-162375238D01*
X210682761Y-162565714D01*
X210682761Y-162756190D01*
X210601809Y-162946666D01*
X210520857Y-163041904D01*
X210358952Y-163137142D01*
X209792285Y-163137142D01*
X211492285Y-164184761D02*
X211492285Y-162851428D01*
X211492285Y-163232380D02*
X211573238Y-163041904D01*
X211654190Y-162946666D01*
X211816095Y-162851428D01*
X211978000Y-162851428D01*
X213192285Y-164089523D02*
X213030380Y-164184761D01*
X212706571Y-164184761D01*
X212544666Y-164089523D01*
X212463714Y-163899047D01*
X212463714Y-163137142D01*
X212544666Y-162946666D01*
X212706571Y-162851428D01*
X213030380Y-162851428D01*
X213192285Y-162946666D01*
X213273238Y-163137142D01*
X213273238Y-163327619D01*
X212463714Y-163518095D01*
X213839904Y-162851428D02*
X214163714Y-164184761D01*
X214487523Y-163232380D01*
X214811333Y-164184761D01*
X215135142Y-162851428D01*
X216430380Y-164089523D02*
X216268476Y-164184761D01*
X215944666Y-164184761D01*
X215782761Y-164089523D01*
X215701809Y-163899047D01*
X215701809Y-163137142D01*
X215782761Y-162946666D01*
X215944666Y-162851428D01*
X216268476Y-162851428D01*
X216430380Y-162946666D01*
X216511333Y-163137142D01*
X216511333Y-163327619D01*
X215701809Y-163518095D01*
X217239904Y-164184761D02*
X217239904Y-162851428D01*
X217239904Y-163232380D02*
X217320857Y-163041904D01*
X217401809Y-162946666D01*
X217563714Y-162851428D01*
X217725619Y-162851428D01*
X219587523Y-164184761D02*
X219587523Y-162184761D01*
X220235142Y-162184761D01*
X220397047Y-162280000D01*
X220478000Y-162375238D01*
X220558952Y-162565714D01*
X220558952Y-162851428D01*
X220478000Y-163041904D01*
X220397047Y-163137142D01*
X220235142Y-163232380D01*
X219587523Y-163232380D01*
X222258952Y-163994285D02*
X222178000Y-164089523D01*
X221935142Y-164184761D01*
X221773238Y-164184761D01*
X221530380Y-164089523D01*
X221368476Y-163899047D01*
X221287523Y-163708571D01*
X221206571Y-163327619D01*
X221206571Y-163041904D01*
X221287523Y-162660952D01*
X221368476Y-162470476D01*
X221530380Y-162280000D01*
X221773238Y-162184761D01*
X221935142Y-162184761D01*
X222178000Y-162280000D01*
X222258952Y-162375238D01*
X223554190Y-163137142D02*
X223797047Y-163232380D01*
X223878000Y-163327619D01*
X223958952Y-163518095D01*
X223958952Y-163803809D01*
X223878000Y-163994285D01*
X223797047Y-164089523D01*
X223635142Y-164184761D01*
X222987523Y-164184761D01*
X222987523Y-162184761D01*
X223554190Y-162184761D01*
X223716095Y-162280000D01*
X223797047Y-162375238D01*
X223878000Y-162565714D01*
X223878000Y-162756190D01*
X223797047Y-162946666D01*
X223716095Y-163041904D01*
X223554190Y-163137142D01*
X222987523Y-163137142D01*
X227197047Y-162089523D02*
X225739904Y-164660952D01*
X228978000Y-162089523D02*
X227520857Y-164660952D01*
X230839904Y-163137142D02*
X231406571Y-163137142D01*
X231649428Y-164184761D02*
X230839904Y-164184761D01*
X230839904Y-162184761D01*
X231649428Y-162184761D01*
X232216095Y-164184761D02*
X233106571Y-162851428D01*
X232216095Y-162851428D02*
X233106571Y-164184761D01*
X233754190Y-162851428D02*
X233754190Y-164851428D01*
X233754190Y-162946666D02*
X233916095Y-162851428D01*
X234239904Y-162851428D01*
X234401809Y-162946666D01*
X234482761Y-163041904D01*
X234563714Y-163232380D01*
X234563714Y-163803809D01*
X234482761Y-163994285D01*
X234401809Y-164089523D01*
X234239904Y-164184761D01*
X233916095Y-164184761D01*
X233754190Y-164089523D01*
X236020857Y-164184761D02*
X236020857Y-163137142D01*
X235939904Y-162946666D01*
X235778000Y-162851428D01*
X235454190Y-162851428D01*
X235292285Y-162946666D01*
X236020857Y-164089523D02*
X235858952Y-164184761D01*
X235454190Y-164184761D01*
X235292285Y-164089523D01*
X235211333Y-163899047D01*
X235211333Y-163708571D01*
X235292285Y-163518095D01*
X235454190Y-163422857D01*
X235858952Y-163422857D01*
X236020857Y-163327619D01*
X236830380Y-162851428D02*
X236830380Y-164184761D01*
X236830380Y-163041904D02*
X236911333Y-162946666D01*
X237073238Y-162851428D01*
X237316095Y-162851428D01*
X237478000Y-162946666D01*
X237558952Y-163137142D01*
X237558952Y-164184761D01*
X238287523Y-164089523D02*
X238449428Y-164184761D01*
X238773238Y-164184761D01*
X238935142Y-164089523D01*
X239016095Y-163899047D01*
X239016095Y-163803809D01*
X238935142Y-163613333D01*
X238773238Y-163518095D01*
X238530380Y-163518095D01*
X238368476Y-163422857D01*
X238287523Y-163232380D01*
X238287523Y-163137142D01*
X238368476Y-162946666D01*
X238530380Y-162851428D01*
X238773238Y-162851428D01*
X238935142Y-162946666D01*
X239744666Y-164184761D02*
X239744666Y-162851428D01*
X239744666Y-162184761D02*
X239663714Y-162280000D01*
X239744666Y-162375238D01*
X239825619Y-162280000D01*
X239744666Y-162184761D01*
X239744666Y-162375238D01*
X240797047Y-164184761D02*
X240635142Y-164089523D01*
X240554190Y-163994285D01*
X240473238Y-163803809D01*
X240473238Y-163232380D01*
X240554190Y-163041904D01*
X240635142Y-162946666D01*
X240797047Y-162851428D01*
X241039904Y-162851428D01*
X241201809Y-162946666D01*
X241282761Y-163041904D01*
X241363714Y-163232380D01*
X241363714Y-163803809D01*
X241282761Y-163994285D01*
X241201809Y-164089523D01*
X241039904Y-164184761D01*
X240797047Y-164184761D01*
X242092285Y-162851428D02*
X242092285Y-164184761D01*
X242092285Y-163041904D02*
X242173238Y-162946666D01*
X242335142Y-162851428D01*
X242578000Y-162851428D01*
X242739904Y-162946666D01*
X242820857Y-163137142D01*
X242820857Y-164184761D01*
X245492285Y-163137142D02*
X245735142Y-163232380D01*
X245816095Y-163327619D01*
X245897047Y-163518095D01*
X245897047Y-163803809D01*
X245816095Y-163994285D01*
X245735142Y-164089523D01*
X245573238Y-164184761D01*
X244925619Y-164184761D01*
X244925619Y-162184761D01*
X245492285Y-162184761D01*
X245654190Y-162280000D01*
X245735142Y-162375238D01*
X245816095Y-162565714D01*
X245816095Y-162756190D01*
X245735142Y-162946666D01*
X245654190Y-163041904D01*
X245492285Y-163137142D01*
X244925619Y-163137142D01*
X246868476Y-164184761D02*
X246706571Y-164089523D01*
X246625619Y-163994285D01*
X246544666Y-163803809D01*
X246544666Y-163232380D01*
X246625619Y-163041904D01*
X246706571Y-162946666D01*
X246868476Y-162851428D01*
X247111333Y-162851428D01*
X247273238Y-162946666D01*
X247354190Y-163041904D01*
X247435142Y-163232380D01*
X247435142Y-163803809D01*
X247354190Y-163994285D01*
X247273238Y-164089523D01*
X247111333Y-164184761D01*
X246868476Y-164184761D01*
X248892285Y-164184761D02*
X248892285Y-163137142D01*
X248811333Y-162946666D01*
X248649428Y-162851428D01*
X248325619Y-162851428D01*
X248163714Y-162946666D01*
X248892285Y-164089523D02*
X248730380Y-164184761D01*
X248325619Y-164184761D01*
X248163714Y-164089523D01*
X248082761Y-163899047D01*
X248082761Y-163708571D01*
X248163714Y-163518095D01*
X248325619Y-163422857D01*
X248730380Y-163422857D01*
X248892285Y-163327619D01*
X249701809Y-164184761D02*
X249701809Y-162851428D01*
X249701809Y-163232380D02*
X249782761Y-163041904D01*
X249863714Y-162946666D01*
X250025619Y-162851428D01*
X250187523Y-162851428D01*
X251482761Y-164184761D02*
X251482761Y-162184761D01*
X251482761Y-164089523D02*
X251320857Y-164184761D01*
X250997047Y-164184761D01*
X250835142Y-164089523D01*
X250754190Y-163994285D01*
X250673238Y-163803809D01*
X250673238Y-163232380D01*
X250754190Y-163041904D01*
X250835142Y-162946666D01*
X250997047Y-162851428D01*
X251320857Y-162851428D01*
X251482761Y-162946666D01*
M02*
